<svg width="768" height="1024" viewBox="0 0 768 1024" fill="none" xmlns="http://www.w3.org/2000/svg">
<g clip-path="url(#clip0_1092_11)">
<rect width="768" height="1024" fill="#96DAFA"/>
<path d="M75.9724 858.197C33.5867 798.739 -60.3366 794.387 -102 799.644V1083H904V858.197C853.264 769.597 755.139 821.28 712.419 858.197C567.293 749.353 440.902 812.846 395.847 858.197C243.85 751.798 119.265 813.864 75.9724 858.197Z" fill="#6CD2A7" stroke="#232323" stroke-width="2"/>
<path d="M120.434 118.539C110.02 112.164 100.775 125.054 97.454 132.295C58.2415 145.479 84.3035 164.166 102.236 171.862C110.578 188.587 125.371 186.549 131.725 183.439C144.212 200.491 162.653 188.183 170.313 179.897C186.625 193.409 197.655 177.809 201.131 168.32C231.683 146.964 213.861 137.493 201.131 135.428C199.059 103.774 174.808 109.163 162.941 115.814C140.041 84.1067 125.061 104.419 120.434 118.539Z" fill="white" stroke="#232323" stroke-width="2"/>
<path d="M262.05 293.329C251.488 287.023 242.112 299.773 238.744 306.937C198.975 319.98 225.407 338.466 243.594 346.078C252.054 362.624 267.057 360.607 273.501 357.531C286.165 374.4 304.868 362.224 312.637 354.028C329.18 367.394 340.366 351.962 343.892 342.575C374.877 321.448 356.802 312.079 343.892 310.036C341.79 278.723 317.195 284.054 305.16 290.634C281.935 259.267 266.743 279.361 262.05 293.329Z" fill="white" stroke="#232323" stroke-width="2"/>
<path d="M49.7423 365.539C39.2543 359.164 29.9435 372.054 26.5991 379.295C-12.8916 392.479 13.3553 411.166 31.415 418.862C39.8161 435.587 54.7143 433.549 61.1133 430.439C73.6882 447.491 92.2607 435.183 99.9752 426.897C116.403 440.409 127.511 424.809 131.011 415.32C161.78 393.964 143.831 384.493 131.011 382.428C128.924 350.774 104.501 356.163 92.5506 362.814C69.4876 331.107 54.4022 351.419 49.7423 365.539Z" fill="white" stroke="#232323" stroke-width="2"/>
<path d="M43.4297 878.5C34.9816 876.596 34.5553 886.036 35.3981 890.994C31.0848 888.614 25.2842 892.183 24.5406 903.338C23.9456 912.262 30.0437 913.403 33.1671 912.857C30.9361 918.212 30.9361 924.756 38.3728 927.284C44.3221 929.307 49.5774 924.26 51.4613 921.484C53.6428 923.12 59.3145 925.143 64.5499 920.145C69.7853 915.148 65.4423 909.04 62.6164 906.61C72.6113 903.517 69.2598 895.703 66.3347 892.183C63.955 885.758 55.4276 887.92 51.4613 889.804C52.3042 886.829 51.8778 880.404 43.4297 878.5Z" fill="#F48ABA" stroke="#232323" stroke-width="2"/>
<circle cx="44.6199" cy="904.826" r="3.31328" fill="#FFCA40" stroke="#232323" stroke-width="2"/>
<path d="M222.68 979C214.232 977.096 213.805 986.536 214.648 991.494C210.335 989.114 204.534 992.683 203.791 1003.84C203.196 1012.76 209.294 1013.9 212.417 1013.36C210.186 1018.71 210.186 1025.26 217.623 1027.78C223.572 1029.81 228.827 1024.76 230.711 1021.98C232.893 1023.62 238.564 1025.64 243.8 1020.65C249.035 1015.65 244.692 1009.54 241.866 1007.11C251.861 1004.02 248.51 996.203 245.585 992.683C243.205 986.258 234.678 988.42 230.711 990.304C231.554 987.329 231.128 980.904 222.68 979Z" fill="#4E8DFF" stroke="#232323" stroke-width="2"/>
<circle cx="223.87" cy="1005.33" r="3.31328" fill="#FFCA40" stroke="#232323" stroke-width="2"/>
<path d="M420.68 878.5C412.232 876.596 411.805 886.036 412.648 890.994C408.335 888.614 402.534 892.183 401.791 903.338C401.196 912.262 407.294 913.403 410.417 912.857C408.186 918.212 408.186 924.756 415.623 927.284C421.572 929.307 426.827 924.26 428.711 921.484C430.893 923.12 436.564 925.143 441.8 920.145C447.035 915.148 442.692 909.04 439.866 906.61C449.861 903.517 446.51 895.703 443.585 892.183C441.205 885.758 432.678 887.92 428.711 889.804C429.554 886.829 429.128 880.404 420.68 878.5Z" fill="white" stroke="#232323" stroke-width="2"/>
<circle cx="421.87" cy="904.826" r="3.31328" fill="#FFCA40" stroke="#232323" stroke-width="2"/>
<path d="M216.93 855.25C208.482 853.346 208.055 862.786 208.898 867.744C204.585 865.364 198.784 868.933 198.041 880.088C197.446 889.012 203.544 890.153 206.667 889.607C204.436 894.962 204.436 901.506 211.873 904.034C217.822 906.057 223.077 901.01 224.961 898.234C227.143 899.87 232.814 901.893 238.05 896.895C243.285 891.898 238.942 885.79 236.116 883.36C246.111 880.267 242.76 872.453 239.835 868.933C237.455 862.508 228.928 864.67 224.961 866.554C225.804 863.579 225.378 857.154 216.93 855.25Z" fill="white" stroke="#232323" stroke-width="2"/>
<circle cx="218.12" cy="881.576" r="3.31328" fill="#FFCA40" stroke="#232323" stroke-width="2"/>
<path d="M722.18 1015.75C713.732 1013.85 713.305 1023.29 714.148 1028.24C709.835 1025.86 704.034 1029.43 703.291 1040.59C702.696 1049.51 708.794 1050.65 711.917 1050.11C709.686 1055.46 709.686 1062.01 717.123 1064.53C723.072 1066.56 728.327 1061.51 730.211 1058.73C732.393 1060.37 738.064 1062.39 743.3 1057.4C748.535 1052.4 744.192 1046.29 741.366 1043.86C751.361 1040.77 748.01 1032.95 745.085 1029.43C742.705 1023.01 734.178 1025.17 730.211 1027.05C731.054 1024.08 730.628 1017.65 722.18 1015.75Z" fill="#4E8DFF" stroke="#232323" stroke-width="2"/>
<path d="M541.43 932.498C532.982 930.594 532.555 940.034 533.398 944.992C529.085 942.612 523.284 946.181 522.541 957.336C521.946 966.26 528.044 967.401 531.167 966.855C528.936 972.21 528.936 978.754 536.373 981.283C542.322 983.305 547.577 978.258 549.461 975.482C551.643 977.118 557.314 979.141 562.55 974.143C567.785 969.146 563.442 963.038 560.616 960.609C570.611 957.515 567.26 949.701 564.335 946.181C561.955 939.756 553.428 941.918 549.461 943.802C550.304 940.827 549.878 934.402 541.43 932.498Z" fill="#4E8DFF" stroke="#232323" stroke-width="2"/>
<circle cx="542.62" cy="958.825" r="3.31328" fill="#FFCA40" stroke="#232323" stroke-width="2"/>
<path d="M634.93 851.25C626.482 849.346 626.055 858.786 626.898 863.744C622.585 861.364 616.784 864.933 616.041 876.088C615.446 885.012 621.544 886.153 624.667 885.607C622.436 890.962 622.436 897.506 629.873 900.034C635.822 902.057 641.077 897.01 642.961 894.234C645.143 895.87 650.814 897.893 656.05 892.895C661.285 887.898 656.942 881.79 654.116 879.36C664.111 876.267 660.76 868.453 657.835 864.933C655.455 858.508 646.928 860.67 642.961 862.554C643.804 859.579 643.378 853.154 634.93 851.25Z" fill="#4E8DFF" stroke="#232323" stroke-width="2"/>
<circle cx="636.12" cy="877.576" r="3.31328" fill="#FFCA40" stroke="#232323" stroke-width="2"/>
<path d="M831.248 116.136C811.527 104.347 794.02 128.185 787.732 141.578C713.479 165.962 762.83 200.522 796.787 214.755C812.584 245.688 840.597 241.918 852.628 236.166C876.273 267.704 911.194 244.941 925.7 229.617C956.588 254.605 977.474 225.754 984.056 208.205C1041.91 168.707 1008.16 151.192 984.056 147.371C980.132 88.8299 934.21 98.7966 911.739 111.098C868.375 52.4554 840.01 90.0222 831.248 116.136Z" fill="white" stroke="#232323" stroke-width="2"/>
<path d="M513.448 378.371C500.153 370.42 488.351 386.497 484.112 395.529C434.053 411.974 467.324 435.283 490.216 444.881C500.866 465.743 519.751 463.2 527.862 459.321C543.802 480.591 567.345 465.239 577.123 454.904C597.947 471.757 612.028 452.299 616.465 440.464C655.467 413.826 632.716 402.013 616.465 399.437C613.819 359.955 582.861 366.677 567.712 374.973C538.477 335.423 519.355 360.759 513.448 378.371Z" fill="white" stroke="#232323" stroke-width="2"/>
<path d="M593.448 509.371C580.153 501.42 568.351 517.497 564.112 526.529C514.053 542.974 547.324 566.283 570.216 575.881C580.866 596.743 599.751 594.2 607.862 590.321C623.802 611.591 647.345 596.239 657.123 585.904C677.947 602.757 692.028 583.299 696.465 571.464C735.467 544.826 712.716 533.013 696.465 530.437C693.819 490.955 662.861 497.677 647.712 505.973C618.477 466.423 599.355 491.759 593.448 509.371Z" fill="white" stroke="#232323" stroke-width="2"/>
<path d="M236.448 536.371C223.153 528.42 211.351 544.497 207.112 553.529C157.053 569.974 190.324 593.283 213.216 602.881C223.866 623.743 242.751 621.2 250.862 617.321C266.802 638.591 290.345 623.239 300.123 612.904C320.947 629.757 335.028 610.299 339.465 598.464C378.467 571.826 355.716 560.013 339.465 557.437C336.819 517.955 305.861 524.677 290.712 532.973C261.477 493.423 242.355 518.759 236.448 536.371Z" fill="white" stroke="#232323" stroke-width="2"/>
<path d="M467.448 144.161C454.153 136.279 442.351 152.217 438.112 161.171C388.053 177.475 421.324 200.582 444.216 210.098C454.866 230.78 473.751 228.259 481.862 224.413C497.802 245.5 521.345 230.28 531.123 220.035C551.947 236.742 566.028 217.452 570.465 205.719C609.467 179.31 586.716 167.599 570.465 165.045C567.819 125.904 536.861 132.568 521.712 140.792C492.477 101.584 473.355 126.701 467.448 144.161Z" fill="white" stroke="#232323" stroke-width="2"/>
</g>
<defs>
<clipPath id="clip0_1092_11">
<rect width="768" height="1024" fill="white"/>
</clipPath>
</defs>
</svg>
