<svg width="414" height="896" viewBox="0 0 414 896" fill="none" xmlns="http://www.w3.org/2000/svg">
<g clip-path="url(#clip0_1096_150)">
<rect width="414" height="896" fill="#96DAFA"/>
<path d="M73.2411 755.597C55.7981 718.462 17.1458 715.744 0 719.027V896H414V755.597C393.121 700.26 352.739 732.54 335.158 755.597C275.435 687.617 223.421 727.272 204.879 755.597C142.328 689.144 91.0575 727.908 73.2411 755.597Z" fill="#6CD2A7" stroke="#232323" stroke-width="2"/>
<path d="M49.7953 27.2945C44.3297 23.9361 39.4776 30.7272 37.7347 34.5425C17.1551 41.4892 30.833 51.3349 40.2444 55.3894C44.6225 64.2018 52.3863 63.1278 55.721 61.4892C62.2741 70.4739 71.9528 63.9889 75.973 59.6234C84.5339 66.7422 90.3225 58.523 92.1467 53.5236C108.181 42.2713 98.8276 37.2814 92.1467 36.193C91.0591 19.5155 78.3316 22.3549 72.1038 25.8592C60.0851 9.15299 52.2237 19.8552 49.7953 27.2945Z" fill="white" stroke="#232323" stroke-width="2"/>
<path d="M360.795 163.295C355.33 159.936 350.478 166.727 348.735 170.543C328.155 177.489 341.833 187.335 351.244 191.389C355.622 200.202 363.386 199.128 366.721 197.489C373.274 206.474 382.953 199.989 386.973 195.623C395.534 202.742 401.322 194.523 403.147 189.524C419.181 178.271 409.828 173.281 403.147 172.193C402.059 155.515 389.332 158.355 383.104 161.859C371.085 145.153 363.224 155.855 360.795 163.295Z" fill="white" stroke="#232323" stroke-width="2"/>
<path d="M261.795 302.295C256.33 298.936 251.478 305.727 249.735 309.543C229.155 316.489 242.833 326.335 252.244 330.389C256.622 339.202 264.386 338.128 267.721 336.489C274.274 345.474 283.953 338.989 287.973 334.623C296.534 341.742 302.322 333.523 304.147 328.524C320.181 317.271 310.828 312.281 304.147 311.193C303.059 294.515 290.332 297.355 284.104 300.859C272.085 284.153 264.224 294.855 261.795 302.295Z" fill="white" stroke="#232323" stroke-width="2"/>
<path d="M274.795 578.295C269.33 574.936 264.478 581.727 262.735 585.543C242.155 592.489 255.833 602.335 265.244 606.389C269.622 615.202 277.386 614.128 280.721 612.489C287.274 621.474 296.953 614.989 300.973 610.623C309.534 617.742 315.322 609.523 317.147 604.524C333.181 593.271 323.828 588.281 317.147 587.193C316.059 570.515 303.332 573.355 297.104 576.859C285.085 560.153 277.224 570.855 274.795 578.295Z" fill="white" stroke="#232323" stroke-width="2"/>
<path d="M294.032 29.1854C287.311 25.21 281.344 33.2485 279.201 37.7646C253.893 45.9872 270.714 57.6413 282.287 62.4405C287.671 72.8716 297.218 71.6002 301.319 69.6607C309.378 80.2956 321.28 72.6196 326.224 67.4522C336.751 75.8785 343.87 66.1497 346.113 60.232C365.831 46.913 354.329 41.0066 346.113 39.7183C344.775 19.9775 329.124 23.3384 321.466 27.4864C306.686 7.7117 297.018 20.3796 294.032 29.1854Z" fill="white" stroke="#232323" stroke-width="2"/>
<path d="M288.032 421.185C281.311 417.21 275.344 425.248 273.201 429.765C247.893 437.987 264.714 449.641 276.287 454.441C281.671 464.872 291.218 463.6 295.319 461.661C303.378 472.296 315.28 464.62 320.224 459.452C330.751 467.879 337.87 458.15 340.113 452.232C359.831 438.913 348.329 433.007 340.113 431.718C338.775 411.978 323.124 415.338 315.466 419.486C300.686 399.712 291.018 412.38 288.032 421.185Z" fill="white" stroke="#232323" stroke-width="2"/>
<path d="M200.032 206.185C193.311 202.21 187.344 210.248 185.201 214.765C159.893 222.987 176.714 234.641 188.287 239.441C193.671 249.872 203.218 248.6 207.319 246.661C215.378 257.296 227.28 249.62 232.224 244.452C242.751 252.879 249.87 243.15 252.113 237.232C271.831 223.913 260.329 218.007 252.113 216.718C250.775 196.978 235.124 200.338 227.466 204.486C212.686 184.712 203.018 197.38 200.032 206.185Z" fill="white" stroke="#232323" stroke-width="2"/>
<path d="M163.032 496.185C156.311 492.21 150.344 500.248 148.201 504.765C122.893 512.987 139.714 524.641 151.287 529.441C156.671 539.872 166.218 538.6 170.319 536.661C178.378 547.296 190.28 539.62 195.224 534.452C205.751 542.879 212.87 533.15 215.113 527.232C234.831 513.913 223.329 508.007 215.113 506.718C213.775 486.978 198.124 490.338 190.466 494.486C175.686 474.712 166.018 487.38 163.032 496.185Z" fill="white" stroke="#232323" stroke-width="2"/>
<path d="M68.032 560.185C61.3108 556.21 55.3441 564.248 53.2008 568.765C27.8934 576.987 44.7136 588.641 56.2871 593.441C61.6709 603.872 71.2183 602.6 75.3191 600.661C83.3776 611.296 95.2798 603.62 100.224 598.452C110.751 606.879 117.87 597.15 120.113 591.232C139.831 577.913 128.329 572.007 120.113 570.718C118.775 550.978 103.124 554.338 95.4655 558.486C80.6857 538.712 71.0183 551.38 68.032 560.185Z" fill="white" stroke="#232323" stroke-width="2"/>
<path d="M93.032 383.185C86.3108 379.21 80.3441 387.248 78.2008 391.765C52.8934 399.987 69.7136 411.641 81.2871 416.441C86.6709 426.872 96.2183 425.6 100.319 423.661C108.378 434.296 120.28 426.62 125.224 421.452C135.751 429.879 142.87 420.15 145.113 414.232C164.831 400.913 153.329 395.007 145.113 393.718C143.775 373.978 128.124 377.338 120.466 381.486C105.686 361.712 96.0183 374.38 93.032 383.185Z" fill="white" stroke="#232323" stroke-width="2"/>
<path d="M60.032 295.185C53.3108 291.21 47.3441 299.248 45.2008 303.765C19.8934 311.987 36.7136 323.641 48.2871 328.441C53.6709 338.872 63.2183 337.6 67.3191 335.661C75.3776 346.296 87.2798 338.62 92.2235 333.452C102.751 341.879 109.87 332.15 112.113 326.232C131.831 312.913 120.329 307.007 112.113 305.718C110.775 285.978 95.124 289.338 87.4655 293.486C72.6857 273.712 63.0183 286.38 60.032 295.185Z" fill="white" stroke="#232323" stroke-width="2"/>
<path d="M43.3447 119.496C35.5894 114.767 28.7047 124.33 26.2317 129.703C-2.96911 139.485 16.4388 153.349 29.7928 159.059C36.0049 171.468 47.0211 169.955 51.7528 167.648C61.0511 180.3 74.7844 171.168 80.4887 165.021C92.6359 175.045 100.849 163.471 103.438 156.431C126.189 140.586 112.918 133.56 103.438 132.027C101.895 108.542 83.8354 112.541 74.9987 117.475C57.9451 93.9501 46.7903 109.021 43.3447 119.496Z" fill="white" stroke="#232323" stroke-width="2"/>
<path d="M36.2927 778.149C31.2529 777.013 30.9985 782.645 31.5013 785.602C28.9282 784.183 25.4678 786.312 25.0242 792.967C24.6693 798.29 28.3071 798.971 30.1704 798.645C28.8395 801.839 28.8395 805.743 33.2759 807.252C36.825 808.459 39.9601 805.448 41.084 803.791C42.3853 804.767 45.7688 805.974 48.8921 802.993C52.0153 800.012 49.4244 796.368 47.7386 794.919C53.7011 793.073 51.7018 788.412 49.9568 786.312C48.5371 782.479 43.4501 783.768 41.084 784.892C41.5868 783.118 41.3324 779.285 36.2927 778.149Z" fill="#F48ABA" stroke="#232323"/>
<circle cx="37.0028" cy="793.854" r="2.07312" fill="#FFCA40" stroke="#232323"/>
<path d="M90.2927 841.149C85.2529 840.013 84.9985 845.645 85.5013 848.602C82.9282 847.183 79.4678 849.312 79.0242 855.967C78.6693 861.29 82.3071 861.971 84.1704 861.645C82.8395 864.839 82.8395 868.743 87.2759 870.252C90.825 871.459 93.9601 868.448 95.084 866.791C96.3853 867.767 99.7688 868.974 102.892 865.993C106.015 863.012 103.424 859.368 101.739 857.919C107.701 856.073 105.702 851.412 103.957 849.312C102.537 845.479 97.4501 846.768 95.084 847.892C95.5868 846.118 95.3324 842.285 90.2927 841.149Z" fill="#4E8DFF" stroke="#232323"/>
<circle cx="91.5731" cy="856.573" r="2.07312" fill="#FFCA40" stroke="#232323"/>
<path d="M155.293 773.149C150.253 772.013 149.999 777.645 150.501 780.602C147.928 779.183 144.468 781.312 144.024 787.967C143.669 793.29 147.307 793.971 149.17 793.645C147.84 796.839 147.839 800.743 152.276 802.252C155.825 803.459 158.96 800.448 160.084 798.791C161.385 799.767 164.769 800.974 167.892 797.993C171.015 795.012 168.424 791.368 166.739 789.919C172.701 788.073 170.702 783.412 168.957 781.312C167.537 777.479 162.45 778.768 160.084 779.892C160.587 778.118 160.332 774.285 155.293 773.149Z" fill="white" stroke="#232323"/>
<circle cx="156.003" cy="788.854" r="2.07312" fill="#FFCA40" stroke="#232323"/>
<path d="M164.293 838.149C159.253 837.013 158.999 842.645 159.501 845.602C156.928 844.183 153.468 846.312 153.024 852.967C152.669 858.29 156.307 858.971 158.17 858.645C156.84 861.839 156.839 865.743 161.276 867.252C164.825 868.459 167.96 865.448 169.084 863.791C170.385 864.767 173.769 865.974 176.892 862.993C180.015 860.012 177.424 856.368 175.739 854.919C181.701 853.073 179.702 848.412 177.957 846.312C176.537 842.479 171.45 843.768 169.084 844.892C169.587 843.118 169.332 839.285 164.293 838.149Z" fill="#F48ABA" stroke="#232323"/>
<circle cx="165.003" cy="853.854" r="2.07312" fill="#FFCA40" stroke="#232323"/>
<path d="M237.293 819.149C232.253 818.013 231.999 823.645 232.501 826.602C229.928 825.183 226.468 827.312 226.024 833.967C225.669 839.29 229.307 839.971 231.17 839.645C229.84 842.839 229.839 846.743 234.276 848.252C237.825 849.459 240.96 846.448 242.084 844.791C243.385 845.767 246.769 846.974 249.892 843.993C253.015 841.012 250.424 837.368 248.739 835.919C254.701 834.073 252.702 829.412 250.957 827.312C249.537 823.479 244.45 824.768 242.084 825.892C242.587 824.118 242.332 820.285 237.293 819.149Z" fill="white" stroke="#232323"/>
<circle cx="238.003" cy="834.854" r="2.07312" fill="#FFCA40" stroke="#232323"/>
<path d="M311.293 844.149C306.253 843.013 305.999 848.645 306.501 851.602C303.928 850.183 300.468 852.312 300.024 858.967C299.669 864.29 303.307 864.971 305.17 864.645C303.84 867.839 303.839 871.743 308.276 873.252C311.825 874.459 314.96 871.448 316.084 869.791C317.385 870.767 320.769 871.974 323.892 868.993C327.015 866.012 324.424 862.368 322.739 860.919C328.701 859.073 326.702 854.412 324.957 852.312C323.537 848.479 318.45 849.768 316.084 850.892C316.587 849.118 316.332 845.285 311.293 844.149Z" fill="white" stroke="#232323"/>
<circle cx="312.003" cy="859.854" r="2.07312" fill="#FFCA40" stroke="#232323"/>
<path d="M359.293 781.149C354.253 780.013 353.999 785.645 354.501 788.602C351.928 787.183 348.468 789.312 348.024 795.967C347.669 801.29 351.307 801.971 353.17 801.645C351.84 804.839 351.839 808.743 356.276 810.252C359.825 811.459 362.96 808.448 364.084 806.791C365.385 807.767 368.769 808.974 371.892 805.993C375.015 803.012 372.424 799.368 370.739 797.919C376.701 796.073 374.702 791.412 372.957 789.312C371.537 785.479 366.45 786.768 364.084 787.892C364.587 786.118 364.332 782.285 359.293 781.149Z" fill="#4E8DFF" stroke="#232323"/>
<circle cx="360.003" cy="796.854" r="2.07312" fill="#FFCA40" stroke="#232323"/>
</g>
<defs>
<clipPath id="clip0_1096_150">
<rect width="414" height="896" fill="white"/>
</clipPath>
</defs>
</svg>
