<svg width="414" height="896" viewBox="0 0 414 896" fill="none" xmlns="http://www.w3.org/2000/svg">
<g clip-path="url(#clip0_906_650)">
<rect width="414" height="896" fill="#96DAFA"/>
<path d="M-84.5859 463.391H104.44C115.209 463.391 123.94 472.121 123.94 482.891V896.668H-104.086V482.891C-104.086 472.121 -95.3555 463.391 -84.5859 463.391Z" fill="#F48ABA" stroke="#232323"/>
<rect x="-70.8105" y="673.399" width="162.25" height="25.1517" rx="9.5" fill="#FFCA40" stroke="#232323"/>
<path d="M-55.4609 615.585V625.713M76.8826 613.459V625.713M-55.4609 625.713V673.688H-14.6372M-55.4609 625.713H-14.6372M76.8826 625.713V673.688H30.5842M76.8826 625.713H30.5842M-14.6372 625.713V673.688M-14.6372 625.713H30.5842M-14.6372 673.688H30.5842M30.5842 625.713V673.688" stroke="#232323"/>
<ellipse cx="76.8877" cy="608.311" rx="4.75486" ry="5.1511" fill="#232323"/>
<circle cx="5.55544" cy="576.995" r="39.1238" fill="#F3E6D6" stroke="#232323"/>
<line x1="4.46484" y1="538.161" x2="4.46485" y2="615.824" stroke="#232323"/>
<line x1="-32.4824" y1="578.874" x2="45.1802" y2="578.874" stroke="#232323"/>
<circle cx="5.55544" cy="817.917" r="39.1238" fill="#F3E6D6" stroke="#232323"/>
<line x1="4.46484" y1="779.083" x2="4.46485" y2="856.746" stroke="#232323"/>
<line x1="-32.4824" y1="819.796" x2="45.1802" y2="819.796" stroke="#232323"/>
<path d="M22.9961 699.033C22.9961 726.374 81.2431 755.299 123.244 735.487" stroke="#232323"/>
<rect x="22.8104" y="706.192" width="22.7743" height="22.7743" rx="1.5" transform="rotate(52.3129 22.8104 706.192)" fill="#2CB46C" stroke="#232323"/>
<rect x="42.8515" y="728.239" width="22.7743" height="22.7743" rx="1.5" transform="rotate(25.1412 42.8515 728.239)" fill="#4E8DFF" stroke="#232323"/>
<rect x="71.8163" y="740.097" width="22.7743" height="22.7743" rx="1.5" transform="rotate(7.58724 71.8163 740.097)" fill="#F3E6D6" stroke="#232323"/>
<rect x="99.6934" y="741.802" width="22.7743" height="22.7743" rx="1.5" transform="rotate(-12.408 99.6934 741.802)" fill="#E72E2E" stroke="#232323"/>
<mask id="path-16-inside-1_906_650" fill="white">
<path fill-rule="evenodd" clip-rule="evenodd" d="M524.722 538.048C524.743 537.196 524.753 536.341 524.753 535.483C524.753 477.779 477.975 431 420.27 431C362.566 431 315.787 477.779 315.787 535.483C315.787 536.341 315.797 537.196 315.818 538.048H315.787V898.056H524.753V538.048H524.722Z"/>
</mask>
<path fill-rule="evenodd" clip-rule="evenodd" d="M524.722 538.048C524.743 537.196 524.753 536.341 524.753 535.483C524.753 477.779 477.975 431 420.27 431C362.566 431 315.787 477.779 315.787 535.483C315.787 536.341 315.797 537.196 315.818 538.048H315.787V898.056H524.753V538.048H524.722Z" fill="#A39ACF"/>
<path d="M524.722 538.048L523.723 538.024L523.698 539.048H524.722V538.048ZM315.818 538.048V539.048H316.842L316.818 538.024L315.818 538.048ZM315.787 538.048V537.048H314.787V538.048H315.787ZM315.787 898.056H314.787V899.056H315.787V898.056ZM524.753 898.056V899.056H525.753V898.056H524.753ZM524.753 538.048H525.753V537.048H524.753V538.048ZM523.753 535.483C523.753 536.332 523.743 537.18 523.723 538.024L525.722 538.072C525.743 537.212 525.753 536.349 525.753 535.483H523.753ZM420.27 432C477.422 432 523.753 478.331 523.753 535.483H525.753C525.753 477.226 478.527 430 420.27 430V432ZM316.787 535.483C316.787 478.331 363.118 432 420.27 432V430C362.013 430 314.787 477.226 314.787 535.483H316.787ZM316.818 538.024C316.797 537.18 316.787 536.332 316.787 535.483H314.787C314.787 536.349 314.798 537.212 314.818 538.072L316.818 538.024ZM315.787 539.048H315.818V537.048H315.787V539.048ZM316.787 898.056V538.048H314.787V898.056H316.787ZM524.753 897.056H315.787V899.056H524.753V897.056ZM523.753 538.048V898.056H525.753V538.048H523.753ZM524.722 539.048H524.753V537.048H524.722V539.048Z" fill="#232323" mask="url(#path-16-inside-1_906_650)"/>
<path fill-rule="evenodd" clip-rule="evenodd" d="M351.525 547.138C351.524 547.3 351.523 547.462 351.523 547.623H351.525V565.641H481.896V544.269H481.803C481.413 537.066 479.768 529.971 476.932 523.291C473.656 515.577 468.855 508.568 462.802 502.664C456.749 496.76 449.563 492.076 441.654 488.881C433.745 485.686 425.269 484.041 416.709 484.041C408.148 484.041 399.672 485.686 391.763 488.881C383.855 492.076 376.669 496.76 370.616 502.664C364.563 508.568 359.761 515.577 356.485 523.291C353.649 529.971 352.004 537.066 351.614 544.269H351.525V547.138Z" fill="#232323"/>
<path fill-rule="evenodd" clip-rule="evenodd" d="M476.109 546.319V562.739H357.328V543.267H357.412C357.767 536.702 359.266 530.237 361.851 524.151C364.835 517.122 369.21 510.736 374.725 505.357C380.24 499.977 386.787 495.71 393.992 492.799C401.198 489.888 408.921 488.389 416.72 488.389C424.519 488.389 432.242 489.888 439.448 492.799C446.653 495.71 453.201 499.977 458.715 505.357C464.23 510.736 468.605 517.122 471.59 524.151C474.174 530.237 475.673 536.702 476.028 543.267H476.109V545.892C476.11 546.034 476.11 546.177 476.11 546.319H476.109Z" fill="#F3E6D6"/>
<mask id="path-20-inside-2_906_650" fill="white">
<path fill-rule="evenodd" clip-rule="evenodd" d="M463.898 831.495V898.063H377.012V831.097H377.015C377.307 814.869 396.644 801.775 420.455 801.775C444.265 801.775 463.602 814.869 463.894 831.097H463.898V831.445C463.898 831.453 463.898 831.462 463.898 831.47C463.898 831.478 463.898 831.487 463.898 831.495Z"/>
</mask>
<path fill-rule="evenodd" clip-rule="evenodd" d="M463.898 831.495V898.063H377.012V831.097H377.015C377.307 814.869 396.644 801.775 420.455 801.775C444.265 801.775 463.602 814.869 463.894 831.097H463.898V831.445C463.898 831.453 463.898 831.462 463.898 831.47C463.898 831.478 463.898 831.487 463.898 831.495Z" fill="#4E8DFF"/>
<path d="M463.898 898.063V899.063H464.898V898.063H463.898ZM377.012 898.063H376.012V899.063H377.012V898.063ZM377.012 831.097V830.097H376.012V831.097H377.012ZM377.015 831.097V832.097H377.997L378.015 831.115L377.015 831.097ZM463.894 831.097L462.894 831.115L462.912 832.097H463.894V831.097ZM463.898 831.097H464.898V830.097H463.898V831.097ZM462.898 831.495V898.063H464.898V831.495H462.898ZM463.898 897.063H377.012V899.063H463.898V897.063ZM378.012 898.063V831.097H376.012V898.063H378.012ZM377.012 832.097H377.015V830.097H377.012V832.097ZM378.015 831.115C378.153 823.422 382.808 816.359 390.475 811.179C398.137 806.002 408.723 802.775 420.455 802.775V800.775C408.375 800.775 397.388 804.094 389.356 809.522C381.329 814.945 376.169 822.544 376.015 831.079L378.015 831.115ZM420.455 802.775C432.186 802.775 442.772 806.002 450.434 811.179C458.101 816.359 462.756 823.422 462.894 831.115L464.894 831.079C464.74 822.544 459.581 814.945 451.554 809.522C443.521 804.094 432.534 800.775 420.455 800.775V802.775ZM463.894 832.097H463.898V830.097H463.894V832.097ZM462.898 831.097V831.445H464.898V831.097H462.898ZM462.898 831.445C462.898 831.45 462.898 831.454 462.898 831.458C462.898 831.463 462.898 831.466 462.898 831.47H464.898C464.898 831.465 464.898 831.461 464.898 831.456C464.898 831.452 464.898 831.448 464.898 831.445H462.898ZM462.898 831.47C462.898 831.474 462.898 831.477 462.898 831.482C462.898 831.486 462.898 831.49 462.898 831.495H464.898C464.898 831.491 464.898 831.488 464.898 831.483C464.898 831.479 464.898 831.475 464.898 831.47H462.898Z" fill="#232323" mask="url(#path-20-inside-2_906_650)"/>
<path d="M356.092 749.833H395.439V789.179H365.592C360.345 789.179 356.092 784.926 356.092 779.679V749.833Z" fill="#F3E6D6" stroke="#232323"/>
<path d="M395.047 749.833H434.394V779.679C434.394 784.926 430.14 789.179 424.894 789.179H395.047V749.833Z" fill="#F3E6D6" stroke="#232323"/>
<path d="M365.592 710.873H395.439V750.22H356.092V720.373C356.092 715.127 360.345 710.873 365.592 710.873Z" fill="#F3E6D6" stroke="#232323"/>
<path d="M395.047 710.873H424.894C430.14 710.873 434.394 715.127 434.394 720.373V750.22H395.047V710.873Z" fill="#F3E6D6" stroke="#232323"/>
<path d="M356.092 659.652H395.439V698.999H365.592C360.345 698.999 356.092 694.746 356.092 689.499V659.652Z" fill="#F3E6D6" stroke="#232323"/>
<path d="M395.047 659.652H434.394V689.499C434.394 694.746 430.14 698.999 424.894 698.999H395.047V659.652Z" fill="#F3E6D6" stroke="#232323"/>
<path d="M365.592 620.693H395.439V660.04H356.092V630.193C356.092 624.946 360.345 620.693 365.592 620.693Z" fill="#F3E6D6" stroke="#232323"/>
<path d="M395.047 620.693H424.894C430.14 620.693 434.394 624.946 434.394 630.193V660.04H395.047V620.693Z" fill="#F3E6D6" stroke="#232323"/>
<path d="M358.382 553.128C334.663 551.928 340.098 562.13 345.781 567.38H397.666C398.654 546.777 382.265 549.294 373.947 553.128C367.029 558.329 360.688 555.295 358.382 553.128Z" fill="#2CB46C" stroke="#232323"/>
<path d="M363.046 592.308C348.61 592.308 335.892 575.68 338.986 565.179H502.253C504.22 583.024 484.741 590.7 474.755 592.308C441.07 592.211 371.575 592.308 363.046 592.308Z" fill="#FFCA40" stroke="#232323"/>
<line x1="360.164" y1="526.257" x2="473.079" y2="526.266" stroke="#232323" stroke-width="3"/>
<mask id="path-33-inside-3_906_650" fill="white">
<path d="M65 818C65 806.954 73.9543 798 85 798H296C307.046 798 316 806.954 316 818V901H65V818Z"/>
</mask>
<path d="M65 818C65 806.954 73.9543 798 85 798H296C307.046 798 316 806.954 316 818V901H65V818Z" fill="#6DD2A7"/>
<path d="M64 818C64 806.402 73.402 797 85 797H295C306.598 797 316 806.402 316 818C316 807.507 307.046 799 296 799H85C74.5066 799 66 807.507 66 818H64ZM316 902H64L66 900H316V902ZM64 902V818C64 806.402 73.402 797 85 797V799C74.5066 799 66 807.507 66 818V900L64 902ZM316 798V901V798Z" fill="#232323" mask="url(#path-33-inside-3_906_650)"/>
<path d="M174.756 713.497C180.187 708.753 188.226 708.545 193.895 713.003L304.907 800.287C316.103 809.09 309.878 827.079 295.635 827.079H84.6981C70.8413 827.079 64.3941 809.898 74.8302 800.782L174.756 713.497Z" fill="#6DD2A7"/>
<circle cx="186.094" cy="801.467" r="21.3386" fill="#F3E6D6" stroke="#232323"/>
<line x1="185.719" y1="780.067" x2="185.719" y2="822.871" stroke="#232323"/>
<line x1="165.133" y1="802.276" x2="207.937" y2="802.276" stroke="#232323"/>
<rect x="40.1879" y="812.481" width="190.814" height="16.9292" rx="8.46458" transform="rotate(-39.2464 40.1879 812.481)" fill="#FF9C45" stroke="#232323"/>
<path d="M181.32 847.951H190.446C201.215 847.951 209.946 856.681 209.946 867.451V900.109H161.82V867.451C161.82 856.681 170.551 847.951 181.32 847.951Z" fill="#A39ACF" stroke="#232323"/>
<circle cx="202.334" cy="873.482" r="2.06625" fill="#E55928" stroke="#232323"/>
<path d="M240.277 878.542H260.541V898.805H244.777C242.292 898.805 240.277 896.791 240.277 894.305V878.542Z" fill="#2CB46C" stroke="#232323"/>
<path d="M260.809 878.542H281.072V894.305C281.072 896.791 279.057 898.805 276.572 898.805H260.809V878.542Z" fill="#FFCA40" stroke="#232323"/>
<path d="M244.777 858.014H260.541V878.277H240.277V862.514C240.277 860.028 242.292 858.014 244.777 858.014Z" fill="#FFCA40" stroke="#232323"/>
<path d="M260.809 858.014H276.572C279.057 858.014 281.072 860.028 281.072 862.514V878.277H260.809V858.014Z" fill="#2CB46C" stroke="#232323"/>
<path d="M90.1621 879.992H110.425V900.256H94.6621C92.1768 900.256 90.1621 898.241 90.1621 895.756V879.992Z" fill="#2CB46C" stroke="#232323"/>
<path d="M110.693 879.992H130.957V895.756C130.957 898.241 128.942 900.256 126.457 900.256H110.693V879.992Z" fill="#FFCA40" stroke="#232323"/>
<path d="M94.6621 859.464H110.425V879.727H90.1621V863.964C90.1621 861.479 92.1768 859.464 94.6621 859.464Z" fill="#FFCA40" stroke="#232323"/>
<path d="M110.693 859.464H126.457C128.942 859.464 130.957 861.479 130.957 863.964V879.727H110.693V859.464Z" fill="#2CB46C" stroke="#232323"/>
<path d="M133.955 789.525C130.716 790.808 124.863 795.537 127.356 804.189" stroke="#232323"/>
<path d="M119.47 786.224C122.525 786.896 127.939 791.1 125.153 802.538C121.12 800.827 114.338 795.169 119.47 786.224Z" fill="#2CB46C" stroke="#232323"/>
<path d="M133.586 788.61C128.16 785.53 131.325 783.172 133.586 782.377C135.639 775.192 139.329 779.383 140.918 782.377C145.134 785.127 143.118 787.143 139.451 789.71C137.692 793.962 134.808 790.748 133.586 788.61Z" fill="#F48ABA" stroke="#232323"/>
<path d="M243.18 785.24C246.419 786.523 252.272 791.252 249.779 799.904" stroke="#232323"/>
<path d="M257.665 781.941C254.609 782.613 249.196 786.817 251.982 798.255C256.015 796.544 262.797 790.887 257.665 781.941Z" fill="#2CB46C" stroke="#232323"/>
<path d="M243.186 784.324C248.612 781.245 245.447 778.886 243.186 778.092C241.133 770.906 237.442 775.098 235.854 778.092C231.638 780.842 233.654 782.858 237.32 785.424C239.08 789.677 241.964 786.463 243.186 784.324Z" fill="#4E8DFF" stroke="#232323"/>
<path d="M102.429 800.889C90.9908 797.223 90.0865 805.716 91.0642 810.421H138.357C140.263 801.623 134.629 801.622 131.574 802.722C127.175 805.215 124.609 802.539 123.876 800.889C119.476 792.641 112.022 797.162 110.861 799.606C107.745 804.189 104.201 801.561 102.429 800.889Z" fill="#2CB46C" stroke="#232323"/>
<path d="M95.7751 831.883C90.737 831.883 86.2986 818.626 87.3782 810.253H144.357C145.044 824.482 138.246 830.602 134.761 831.883C123.005 831.806 98.7516 831.883 95.7751 831.883Z" fill="#F89334" stroke="#232323"/>
<circle cx="136.759" cy="785.324" r="1.83304" fill="#FFCA40"/>
<circle cx="239.772" cy="780.924" r="1.83304" fill="#FFCA40"/>
<path d="M240.068 800.694C228.63 797.028 227.725 805.521 228.703 810.226H275.995C277.902 801.427 272.268 801.427 269.213 802.527C264.814 805.019 262.247 802.343 261.514 800.694C257.115 792.445 249.661 796.967 248.5 799.41C245.383 803.994 241.84 801.366 240.068 800.694Z" fill="#2CB46C" stroke="#232323"/>
<path d="M231.422 831.883C226.383 831.883 221.945 818.626 223.025 810.253H280.004C280.69 824.482 273.892 830.602 270.407 831.883C258.652 831.806 234.398 831.883 231.422 831.883Z" fill="#F89334" stroke="#232323"/>
<rect x="193.124" y="695.54" width="188.721" height="15.8499" rx="7.92495" transform="rotate(38.8883 193.124 695.54)" fill="#FF9C45" stroke="#232323"/>
</g>
<defs>
<clipPath id="clip0_906_650">
<rect width="414" height="896" fill="white"/>
</clipPath>
</defs>
</svg>
