<svg width="360" height="640" viewBox="0 0 360 640" fill="none" xmlns="http://www.w3.org/2000/svg">
<g clip-path="url(#clip0_906_539)">
<rect width="360" height="640" fill="#96DAFA"/>
<path d="M-23.0059 342.5H94.9928C105.762 342.5 114.493 351.23 114.493 362V641.096H-42.5059V362C-42.5059 351.23 -33.7754 342.5 -23.0059 342.5Z" fill="#F48ABA" stroke="#232323"/>
<rect x="-19.5488" y="487.378" width="111.622" height="17.0414" rx="8.52069" fill="#FFCA40" stroke="#232323"/>
<path d="M-9.11328 447.339V454.326M82.187 445.873V454.326M-9.11328 454.326V487.422H19.0499M-9.11328 454.326H19.0499M82.187 454.326V487.422H50.247M82.187 454.326H50.247M19.0499 454.326V487.422M19.0499 454.326H50.247M19.0499 487.422H50.247M50.247 454.326V487.422" stroke="#232323"/>
<ellipse cx="82.1865" cy="442.322" rx="3.28025" ry="3.5536" fill="#232323"/>
<circle cx="32.9799" cy="420.718" r="26.8354" fill="#F3E6D6" stroke="#232323"/>
<line x1="32.3828" y1="393.928" x2="32.3828" y2="447.505" stroke="#232323"/>
<line x1="6.73828" y1="421.859" x2="60.3157" y2="421.859" stroke="#232323"/>
<circle cx="32.9799" cy="586.923" r="26.8354" fill="#F3E6D6" stroke="#232323"/>
<line x1="32.3828" y1="560.133" x2="32.3828" y2="613.71" stroke="#232323"/>
<line x1="6.73828" y1="588.063" x2="60.3157" y2="588.063" stroke="#232323"/>
<path d="M45.0098 504.909C45.0098 523.771 85.1928 543.725 114.168 530.058" stroke="#232323"/>
<rect x="44.8514" y="510.065" width="15.4012" height="15.4012" rx="1.5" transform="rotate(52.3129 44.8514 510.065)" fill="#2CB46C" stroke="#232323"/>
<rect x="58.7812" y="525.262" width="15.4012" height="15.4012" rx="1.5" transform="rotate(25.1412 58.7812 525.262)" fill="#4E8DFF" stroke="#232323"/>
<rect x="78.8222" y="533.411" width="15.4013" height="15.4013" rx="1.5" transform="rotate(7.58724 78.8222 533.411)" fill="#F3E6D6" stroke="#232323"/>
<rect x="98.1055" y="534.532" width="15.4012" height="15.4012" rx="1.5" transform="rotate(-12.408 98.1055 534.532)" fill="#E72E2E" stroke="#232323"/>
<mask id="path-16-inside-1_906_539" fill="white">
<path fill-rule="evenodd" clip-rule="evenodd" d="M391.139 392.85C391.153 392.262 391.16 391.672 391.16 391.08C391.16 351.271 358.889 319 319.08 319C279.271 319 247 351.271 247 391.08C247 391.672 247.007 392.262 247.021 392.85H247V641.21H391.16V392.85H391.139Z"/>
</mask>
<path fill-rule="evenodd" clip-rule="evenodd" d="M391.139 392.85C391.153 392.262 391.16 391.672 391.16 391.08C391.16 351.271 358.889 319 319.08 319C279.271 319 247 351.271 247 391.08C247 391.672 247.007 392.262 247.021 392.85H247V641.21H391.16V392.85H391.139Z" fill="#A39ACF"/>
<path d="M391.139 392.85L390.139 392.826L390.114 393.85H391.139V392.85ZM247.021 392.85V393.85H248.046L248.021 392.826L247.021 392.85ZM247 392.85V391.85H246V392.85H247ZM247 641.21H246V642.21H247V641.21ZM391.16 641.21V642.21H392.16V641.21H391.16ZM391.16 392.85H392.16V391.85H391.16V392.85ZM390.16 391.08C390.16 391.664 390.153 392.246 390.139 392.826L392.139 392.874C392.153 392.278 392.16 391.68 392.16 391.08H390.16ZM319.08 320C358.337 320 390.16 351.824 390.16 391.08H392.16C392.16 350.719 359.441 318 319.08 318V320ZM248 391.08C248 351.824 279.824 320 319.08 320V318C278.719 318 246 350.719 246 391.08H248ZM248.021 392.826C248.007 392.246 248 391.664 248 391.08H246C246 391.68 246.007 392.278 246.022 392.874L248.021 392.826ZM247 393.85H247.021V391.85H247V393.85ZM248 641.21V392.85H246V641.21H248ZM391.16 640.21H247V642.21H391.16V640.21ZM390.16 392.85V641.21H392.16V392.85H390.16ZM391.139 393.85H391.16V391.85H391.139V393.85Z" fill="#232323" mask="url(#path-16-inside-1_906_539)"/>
<path fill-rule="evenodd" clip-rule="evenodd" d="M359.593 399.101V411.249H273V396.838H273.061C273.32 391.981 274.412 387.197 276.296 382.694C278.472 377.492 281.661 372.766 285.682 368.785C289.702 364.803 294.475 361.645 299.728 359.491C304.981 357.336 310.611 356.227 316.297 356.227C321.983 356.227 327.613 357.336 332.866 359.491C338.119 361.645 342.892 364.803 346.912 368.785C350.933 372.766 354.122 377.492 356.298 382.694C358.182 387.197 359.274 391.981 359.533 396.838H359.593V398.926C359.594 398.984 359.594 399.043 359.594 399.101H359.593Z" fill="#232323"/>
<path fill-rule="evenodd" clip-rule="evenodd" d="M275.654 398.472C275.654 398.5 275.654 398.528 275.654 398.556H275.654V409.882H357.598V396.449H357.541C357.296 391.921 356.262 387.461 354.479 383.262C352.42 378.414 349.402 374.008 345.598 370.297C341.793 366.586 337.276 363.642 332.305 361.634C327.334 359.626 322.007 358.592 316.626 358.592C311.246 358.592 305.918 359.626 300.947 361.634C295.976 363.642 291.459 366.586 287.655 370.297C283.85 374.008 280.832 378.414 278.773 383.262C276.99 387.461 275.956 391.921 275.711 396.449H275.654V398.472Z" fill="#F3E6D6"/>
<mask id="path-20-inside-2_906_539" fill="white">
<path fill-rule="evenodd" clip-rule="evenodd" d="M349.177 595.273V641.214H289.236V595.273V595.016H289.239C289.44 583.821 302.78 574.787 319.206 574.787C335.633 574.787 348.973 583.821 349.174 595.016H349.177V595.273Z"/>
</mask>
<path fill-rule="evenodd" clip-rule="evenodd" d="M349.177 595.273V641.214H289.236V595.273V595.016H289.239C289.44 583.821 302.78 574.787 319.206 574.787C335.633 574.787 348.973 583.821 349.174 595.016H349.177V595.273Z" fill="#4E8DFF"/>
<path d="M349.177 641.214V642.214H350.177V641.214H349.177ZM289.236 641.214H288.236V642.214H289.236V641.214ZM289.236 595.016V594.016H288.236V595.016H289.236ZM289.239 595.016V596.016H290.221L290.238 595.034L289.239 595.016ZM349.174 595.016L348.174 595.034L348.192 596.016H349.174V595.016ZM349.177 595.016H350.177V594.016H349.177V595.016ZM348.177 595.273V641.214H350.177V595.273H348.177ZM349.177 640.214H289.236V642.214H349.177V640.214ZM290.236 641.214V595.273H288.236V641.214H290.236ZM290.236 595.273V595.016H288.236V595.273H290.236ZM289.236 596.016H289.239V594.016H289.236V596.016ZM290.238 595.034C290.331 589.857 293.464 585.068 298.698 581.532C303.926 577.999 311.167 575.787 319.206 575.787V573.787C310.819 573.787 303.177 576.092 297.578 579.875C291.985 583.654 288.347 588.979 288.239 594.998L290.238 595.034ZM319.206 575.787C327.246 575.787 334.487 577.999 339.715 581.532C344.949 585.068 348.081 589.857 348.174 595.034L350.174 594.998C350.066 588.979 346.428 583.654 340.835 579.875C335.236 576.092 327.594 573.787 319.206 573.787V575.787ZM349.174 596.016H349.177V594.016H349.174V596.016ZM348.177 595.016V595.273H350.177V595.016H348.177Z" fill="#232323" mask="url(#path-20-inside-2_906_539)"/>
<circle cx="344.244" cy="608.186" r="1.90267" fill="#E55928" stroke="#232323"/>
<path d="M261.16 539.11H287.994V565.944H270.66C265.413 565.944 261.16 561.691 261.16 556.444V539.11Z" fill="#F3E6D6" stroke="#232323"/>
<path d="M288.033 539.11H314.867V556.444C314.867 561.691 310.614 565.944 305.367 565.944H288.033V539.11Z" fill="#F3E6D6" stroke="#232323"/>
<path d="M270.66 512.233H287.994V539.068H261.16V521.733C261.16 516.487 265.413 512.233 270.66 512.233Z" fill="#F3E6D6" stroke="#232323"/>
<path d="M288.033 512.233H305.367C310.614 512.233 314.867 516.487 314.867 521.733V539.068H288.033V512.233Z" fill="#F3E6D6" stroke="#232323"/>
<path d="M323.455 538.57H350.289V565.404H332.955C327.708 565.404 323.455 561.151 323.455 555.904V538.57Z" fill="#F3E6D6" stroke="#232323"/>
<path d="M350.328 538.57H377.162V555.904C377.162 561.151 372.909 565.404 367.662 565.404H350.328V538.57Z" fill="#F3E6D6" stroke="#232323"/>
<path d="M332.955 511.693H350.289V538.528H323.455V521.193C323.455 515.947 327.708 511.693 332.955 511.693Z" fill="#F3E6D6" stroke="#232323"/>
<path d="M350.328 511.693H367.662C372.909 511.693 377.162 515.947 377.162 521.193V538.528H350.328V511.693Z" fill="#F3E6D6" stroke="#232323"/>
<path d="M261.16 476.897H287.994V503.731H270.66C265.413 503.731 261.16 499.478 261.16 494.231V476.897Z" fill="#F3E6D6" stroke="#232323"/>
<path d="M288.033 476.897H314.867V494.231C314.867 499.478 310.614 503.731 305.367 503.731H288.033V476.897Z" fill="#F3E6D6" stroke="#232323"/>
<path d="M270.66 450.021H287.994V476.855H261.16V459.52C261.16 454.274 265.413 450.021 270.66 450.021Z" fill="#F3E6D6" stroke="#232323"/>
<path d="M288.033 450.021H305.367C310.614 450.021 314.867 454.274 314.867 459.521V476.855H288.033V450.021Z" fill="#F3E6D6" stroke="#232323"/>
<path d="M323.455 476.355H350.289V503.189H332.955C327.708 503.189 323.455 498.936 323.455 493.689V476.355Z" fill="#F3E6D6" stroke="#232323"/>
<path d="M350.328 476.355H377.162V493.689C377.162 498.936 372.909 503.189 367.662 503.189H350.328V476.355Z" fill="#F3E6D6" stroke="#232323"/>
<path d="M332.955 449.479H350.289V476.313H323.455V458.979C323.455 453.732 327.708 449.479 332.955 449.479Z" fill="#F3E6D6" stroke="#232323"/>
<path d="M350.328 449.479H367.662C372.909 449.479 377.162 453.732 377.162 458.979V476.313H350.328V449.479Z" fill="#F3E6D6" stroke="#232323"/>
<path d="M276.385 403.253C260.022 402.425 263.772 409.463 267.692 413.085H303.486C304.168 398.871 292.862 400.608 287.123 403.253C282.351 406.841 277.976 404.748 276.385 403.253Z" fill="#2CB46C" stroke="#232323"/>
<path d="M354.492 404.116C345.257 403.193 344.36 409.629 345.065 412.963C352.696 413.925 369.305 415.271 374.692 412.963C380.079 410.655 378.989 407.514 377.77 406.231C374.076 399 367.638 401.808 364.88 404.116C360.879 406.27 356.287 405.014 354.492 404.116Z" fill="#2CB46C" stroke="#232323"/>
<path d="M279.603 430.282C269.644 430.282 260.87 418.811 263.005 411.566H375.638C376.995 423.877 363.557 429.173 356.668 430.282C333.43 430.215 285.487 430.282 279.603 430.282Z" fill="#FFCA40" stroke="#232323"/>
<line x1="316.039" y1="357.205" x2="316.039" y2="410.205" stroke="#232323"/>
<line x1="277.613" y1="385.25" x2="355.51" y2="385.256" stroke="#232323"/>
<path d="M93.998 574.5H231.998C242.768 574.5 251.498 583.23 251.498 594V644.5H74.498V594C74.498 583.23 83.2285 574.5 93.998 574.5Z" fill="#6DD2A7" stroke="#232323"/>
<path d="M146.799 518.184C152.23 513.439 160.269 513.232 165.938 517.689L228.923 567.212C240.12 576.015 233.895 594.004 219.652 594.004H99.9716C86.1148 594.004 79.6675 576.823 90.1036 567.707L146.799 518.184Z" fill="#6DD2A7"/>
<circle cx="157.527" cy="576.335" r="14.5659" fill="#F3E6D6" stroke="#232323"/>
<line x1="157.424" y1="561.571" x2="157.424" y2="591.101" stroke="#232323"/>
<line x1="143.064" y1="576.739" x2="172.594" y2="576.739" stroke="#232323"/>
<rect x="59.7067" y="587.529" width="131.327" height="11.3689" rx="5.68443" transform="rotate(-43.099 59.7067 587.529)" fill="#FF9C45" stroke="#232323"/>
<path d="M173.824 625.004V644.231H140.934V625.004C140.934 615.922 148.296 608.559 157.379 608.559C166.461 608.559 173.824 615.922 173.824 625.004Z" fill="#A39ACF" stroke="#232323"/>
<circle cx="168.725" cy="626.016" r="1.27039" fill="#E55928" stroke="#232323"/>
<path d="M195.061 629.663H208.729V643.332H199.561C197.075 643.332 195.061 641.317 195.061 638.832V629.663Z" fill="#2CB46C" stroke="#232323"/>
<path d="M209.223 629.663H222.892V638.832C222.892 641.317 220.877 643.332 218.392 643.332H209.223V629.663Z" fill="#FFCA40" stroke="#232323"/>
<path d="M199.561 615.5H208.729V629.169H195.061V620C195.061 617.515 197.075 615.5 199.561 615.5Z" fill="#FFCA40" stroke="#232323"/>
<path d="M209.223 615.5H218.392C220.877 615.5 222.892 617.515 222.892 620V629.169H209.223V615.5Z" fill="#2CB46C" stroke="#232323"/>
<path d="M91.5 630.663H105.169V644.332H96C93.5147 644.332 91.5 642.317 91.5 639.832V630.663Z" fill="#2CB46C" stroke="#232323"/>
<path d="M105.662 630.663H119.331V639.832C119.331 642.317 117.316 644.332 114.831 644.332H105.662V630.663Z" fill="#FFCA40" stroke="#232323"/>
<path d="M96 616.5H105.169V630.169H91.5V621C91.5 618.515 93.5147 616.5 96 616.5Z" fill="#FFCA40" stroke="#232323"/>
<path d="M105.662 616.5H114.831C117.316 616.5 119.331 618.515 119.331 621V630.169H105.662V616.5Z" fill="#2CB46C" stroke="#232323"/>
<path d="M121.555 568.096C119.321 568.981 115.283 572.244 117.003 578.213" stroke="#232323"/>
<path d="M111.566 565.82C113.674 566.284 117.408 569.184 115.486 577.075C112.704 575.894 108.025 571.991 111.566 565.82Z" fill="#2CB46C" stroke="#232323"/>
<path d="M121.303 567.465C117.56 565.34 119.743 563.713 121.303 563.165C122.719 558.208 125.265 561.1 126.361 563.165C129.27 565.062 127.879 566.453 125.35 568.224C124.136 571.157 122.146 568.94 121.303 567.465Z" fill="#F48ABA" stroke="#232323"/>
<path d="M196.913 565.141C199.147 566.026 203.186 569.289 201.466 575.257" stroke="#232323"/>
<path d="M206.903 562.865C204.795 563.329 201.061 566.229 202.983 574.12C205.765 572.939 210.444 569.036 206.903 562.865Z" fill="#2CB46C" stroke="#232323"/>
<path d="M196.914 564.51C200.657 562.385 198.473 560.758 196.914 560.21C195.497 555.253 192.951 558.145 191.855 560.21C188.947 562.107 190.338 563.498 192.867 565.269C194.081 568.202 196.071 565.985 196.914 564.51Z" fill="#4E8DFF" stroke="#232323"/>
<path d="M99.8092 575.937C91.9183 573.408 91.2944 579.267 91.9689 582.513H124.595C125.91 576.443 122.023 576.443 119.916 577.201C116.881 578.921 115.11 577.075 114.605 575.937C111.57 570.247 106.427 573.366 105.626 575.052C103.476 578.213 101.032 576.401 99.8092 575.937Z" fill="#2CB46C" stroke="#232323"/>
<path d="M95.218 597.319C91.7423 597.319 88.6804 588.173 89.4252 582.397H128.734C129.207 592.212 124.517 596.434 122.113 597.319C114.003 597.265 97.2714 597.319 95.218 597.319Z" fill="#F89334" stroke="#232323"/>
<circle cx="123.489" cy="565.198" r="1.26456" fill="#FFCA40"/>
<circle cx="194.559" cy="562.164" r="1.26456" fill="#FFCA40"/>
<path d="M194.762 575.801C186.871 573.272 186.248 579.131 186.922 582.377H219.548C220.863 576.307 216.976 576.307 214.869 577.065C211.834 578.785 210.064 576.939 209.558 575.801C206.523 570.11 201.38 573.23 200.579 574.916C198.43 578.077 195.985 576.264 194.762 575.801Z" fill="#2CB46C" stroke="#232323"/>
<path d="M188.796 597.319C185.32 597.319 182.259 588.173 183.003 582.397H222.312C222.785 592.212 218.095 596.434 215.691 597.319C207.581 597.265 190.849 597.319 188.796 597.319Z" fill="#F89334" stroke="#232323"/>
<rect x="158.346" y="504.878" width="129.883" height="10.6243" rx="5.31215" transform="rotate(37.2105 158.346 504.878)" fill="#FF9C45" stroke="#232323"/>
</g>
<defs>
<clipPath id="clip0_906_539">
<rect width="360" height="640" fill="white"/>
</clipPath>
</defs>
</svg>
