<svg width="768" height="1024" viewBox="0 0 768 1024" fill="none" xmlns="http://www.w3.org/2000/svg">
<g clip-path="url(#clip0_905_370)">
<rect width="768" height="1024" fill="#96DAFA"/>
<path d="M216.842 639.763H383.452C393.946 639.763 402.452 648.27 402.452 658.763V1029.54H197.842V658.763C197.842 648.27 206.348 639.763 216.842 639.763Z" fill="#F48ABA" stroke="#232323" stroke-width="2"/>
<path d="M-139.904 227.971H152.531C163.025 227.971 171.531 236.478 171.531 246.971V731.416H-158.904V246.971C-158.904 236.478 -150.398 227.971 -139.904 227.971Z" fill="#A39ACF" stroke="#232323" stroke-width="2"/>
<path d="M-114.881 526.089H177.555C188.048 526.089 196.555 534.595 196.555 545.089V1029.53H-133.881V545.089C-133.881 534.595 -125.374 526.089 -114.881 526.089Z" fill="#FFCA40" stroke="#232323" stroke-width="2"/>
<path d="M-12.6484 801.333H75.3214C85.8148 801.333 94.3214 809.84 94.3214 820.333V1029.54H-31.6484V820.333C-31.6484 809.84 -23.1418 801.333 -12.6484 801.333Z" fill="#A39ACF" stroke="#232323" stroke-width="2"/>
<path d="M94.6074 1003.37V980.871C106.328 966.173 112.773 990.856 122.608 984.246C153.538 944.128 150.608 1006.74 163.956 984.246C174.636 966.249 190.329 970.998 196.84 975.622V1003.37H94.6074Z" fill="#2CB46C" stroke="#232323" stroke-width="2"/>
<path d="M93.8926 1004.07C93.8926 998.547 98.3697 994.07 103.893 994.07H187.555C193.078 994.07 197.555 998.547 197.555 1004.07V1030.53H93.8926V1004.07Z" fill="#232323"/>
<circle cx="74.2292" cy="908.64" r="5.7917" fill="#E55928" stroke="#232323" stroke-width="2"/>
<path fill-rule="evenodd" clip-rule="evenodd" d="M94.5526 640.879V732.975H-44.084V640.879V639.89H-44.0771C-43.5483 602.062 -12.719 571.56 25.2343 571.56C63.1876 571.56 94.0168 602.062 94.5457 639.89H94.5526V640.879Z" fill="#232323"/>
<path fill-rule="evenodd" clip-rule="evenodd" d="M83.1642 642.69V721.051H-34.7969V642.69V641.848H-34.791C-34.3406 609.662 -8.10929 583.71 24.1836 583.71C56.4766 583.71 82.7079 609.662 83.1583 641.848H83.1642V642.69Z" fill="#F3E6D6"/>
<line x1="26.3301" y1="583.714" x2="26.3301" y2="720.978" stroke="#232323" stroke-width="5"/>
<line x1="-36.2227" y1="650.558" x2="83.8831" y2="650.558" stroke="#232323" stroke-width="5"/>
<path d="M163.671 858.953C163.671 861.693 162.076 864.278 159.284 866.22C156.496 868.16 152.59 869.392 148.228 869.392C143.866 869.392 139.961 868.16 137.172 866.22C134.38 864.278 132.785 861.693 132.785 858.953C132.785 856.213 134.38 853.628 137.172 851.686C139.961 849.746 143.866 848.514 148.228 848.514C152.59 848.514 156.496 849.746 159.284 851.686C162.076 853.628 163.671 856.213 163.671 858.953Z" fill="#F3E6D6" stroke="#232323" stroke-width="2"/>
<path d="M181.5 851.448H117.157C103.216 851.448 128.238 814.63 158.622 824.639C182.929 832.646 184.002 845.848 181.5 851.448Z" fill="#F48ABA" stroke="#232323" stroke-width="2"/>
<path d="M-35.2173 711.841C-69.5332 710.125 -61.6691 724.709 -53.4476 732.216H21.6185C23.0483 702.761 -0.663021 706.36 -12.6974 711.841C-22.7062 719.275 -31.881 714.939 -35.2173 711.841Z" fill="#2CB46C" stroke="#232323" stroke-width="2"/>
<path d="M69.5776 719.234C52.4197 717.518 50.7515 729.481 52.0622 735.677C66.2414 737.464 97.1018 739.966 107.111 735.677C117.119 731.387 115.094 725.549 112.83 723.165C105.967 709.725 94.0039 714.944 88.8803 719.234C81.4452 723.238 72.9139 720.902 69.5776 719.234Z" fill="#2CB46C" stroke="#232323" stroke-width="2"/>
<path d="M-29.1418 764.584C-43.8284 764.584 -56.7667 744.867 -53.6195 732.414H112.48C114.481 753.575 94.6639 762.678 84.505 764.584C50.2361 764.469 -20.4651 764.584 -29.1418 764.584Z" fill="#E7882E" stroke="#232323" stroke-width="2"/>
<path d="M-40.5812 357.082C-55.2679 357.082 -68.2061 337.365 -65.059 324.912H101.04C103.042 346.073 83.2245 355.176 73.0655 357.082C38.7967 356.967 -31.9046 357.082 -40.5812 357.082Z" fill="#4E8DFF" stroke="#232323" stroke-width="2"/>
<path d="M24.9213 506.654V477.191H37.5042V506.654C38.0894 516.966 45.405 515.993 52.7206 516.966C60.914 518.055 60.1337 522.859 58.573 525.805H7.07129C5.9008 519.028 6.77867 518.734 16.7278 516.966C24.6872 515.552 24.9213 510.101 24.9213 506.654Z" fill="#E38835" stroke="#232323" stroke-width="2"/>
<rect x="-1" y="1" width="57.338" height="43.7546" rx="9" transform="matrix(-1 0 0 1 140.504 447.88)" fill="#2CB46C" stroke="#232323" stroke-width="2"/>
<rect x="-1" y="1" width="27.3115" height="31.601" rx="9" transform="matrix(-1 0 0 1 140.504 492.206)" fill="#2CB46C" stroke="#232323" stroke-width="2"/>
<path d="M122.577 493.206H94.5213C92.3825 493.206 90.3137 493.967 88.6855 495.354L85.7444 497.859C79.9393 502.804 82.5289 512.275 90.0423 513.578L115.836 518.052C119.178 518.632 122.563 517.283 124.59 514.563L129.792 507.585C134.218 501.648 129.981 493.206 122.577 493.206Z" fill="#2CB46C" stroke="#232323" stroke-width="2"/>
<rect x="-1" y="1" width="48.0441" height="13.7281" rx="6.86407" transform="matrix(-1 0 0 1 121.916 510.793)" fill="#2CB46C" stroke="#232323" stroke-width="2"/>
<rect x="-5.19922" y="466.033" width="75.2109" height="11.5834" rx="5.7917" fill="#E38835" stroke="#232323" stroke-width="2"/>
<path d="M-2.33984 285.16H37.1252V324.625H-2.33984V285.16Z" fill="#F3E6D6" stroke="#232323" stroke-width="2"/>
<path d="M37.7012 285.16H77.1663V315.625C77.1663 320.596 73.1368 324.625 68.1663 324.625H37.7012V285.16Z" fill="#F3E6D6" stroke="#232323" stroke-width="2"/>
<rect x="-2.33984" y="245.127" width="39.4651" height="39.4651" fill="#F3E6D6" stroke="#232323" stroke-width="2"/>
<path d="M46.7012 245.127H68.1663C73.1368 245.127 77.1663 249.156 77.1663 254.127V284.592H37.7012V254.127C37.7012 249.156 41.7306 245.127 46.7012 245.127Z" fill="#F3E6D6" stroke="#232323" stroke-width="2"/>
<path d="M-31.4655 298.931C-68.7525 283.446 -73.7903 315.339 -60.6353 324.911H59.4758C61.7637 287.353 23.8238 291.942 4.5679 298.931C-11.4469 308.411 -22.9979 303.464 -31.4655 298.931Z" fill="#2CB46C" stroke="#232323" stroke-width="2"/>
<rect x="227.865" y="829.215" width="145.273" height="21.5922" rx="9" fill="#FFCA40" stroke="#232323" stroke-width="2"/>
<path d="M241.164 776.512V785.649M360.555 774.595V785.649M241.164 785.649V828.928H277.992M241.164 785.649H277.992M360.555 785.649V828.928H318.788M360.555 785.649H318.788M277.992 785.649V828.928M277.992 785.649H318.788M277.992 828.928H318.788M318.788 785.649V828.928" stroke="#232323" stroke-width="2"/>
<circle cx="240.805" cy="772.091" r="4.64695" fill="#232323"/>
<ellipse cx="360.553" cy="769.948" rx="4.28949" ry="4.64695" fill="#232323"/>
<circle cx="296.211" cy="741.705" r="34.7458" fill="#F3E6D6" stroke="#232323" stroke-width="2"/>
<line x1="296.279" y1="706.673" x2="296.279" y2="776.735" stroke="#232323" stroke-width="3"/>
<line x1="261.895" y1="742.35" x2="331.956" y2="742.35" stroke="#232323" stroke-width="3"/>
<circle cx="296.211" cy="959.042" r="34.7458" fill="#F3E6D6" stroke="#232323" stroke-width="2"/>
<line x1="296.279" y1="924.01" x2="296.279" y2="994.072" stroke="#232323" stroke-width="3"/>
<line x1="261.895" y1="959.687" x2="331.956" y2="959.687" stroke="#232323" stroke-width="3"/>
<path d="M311.938 851.8C311.938 876.465 364.484 902.559 402.374 884.687" stroke="#232323" stroke-width="3"/>
<rect x="311.668" y="859.022" width="19.4475" height="19.4475" rx="4" transform="rotate(52.3129 311.668 859.022)" fill="#2CB46C" stroke="#232323" stroke-width="2"/>
<rect x="330.111" y="878.872" width="19.4475" height="19.4475" rx="4" transform="rotate(25.1412 330.111 878.872)" fill="#4E8DFF" stroke="#232323" stroke-width="2"/>
<rect x="356.453" y="889.457" width="19.4475" height="19.4475" rx="4" transform="rotate(7.58724 356.453 889.457)" fill="#F3E6D6" stroke="#232323" stroke-width="2"/>
<rect x="381.785" y="890.796" width="19.4475" height="19.4475" rx="4" transform="rotate(-12.408 381.785 890.796)" fill="#E72E2E" stroke="#232323" stroke-width="2"/>
<path d="M812.73 902.661L790.444 898.197C788.902 913.739 779.03 917.897 772.411 913.819C767.069 910.529 769.556 899.743 772.251 895.244L766.666 891.35L772.812 888.25C768.824 885.637 772.451 871.555 779.009 870.08C788.656 867.912 792.453 881.749 791.957 888.173L813.491 886.575L817.622 847.325C820.149 836.466 827.973 838.99 831.569 841.61C839.972 835.654 847.574 845.162 850.324 850.661L847.262 888.138C851.519 888.645 852.955 890.697 853.2 892.642L853.777 888.318C856.387 884.766 857.439 886.955 857.639 888.493L855.541 909.354C853.299 912.759 852.116 910.378 851.804 908.762L852.073 903.071C851.437 907.22 847.053 907.474 844.723 907.013L842.73 939.864C838.292 954.226 826.624 952.802 821.344 950.295C809.447 956.5 807.824 946.909 808.5 941.338L812.73 902.661Z" fill="white"/>
<path d="M790.444 898.197L812.73 902.661L808.5 941.338C807.824 946.909 809.447 956.5 821.344 950.295C826.624 952.802 838.292 954.226 842.73 939.864L844.723 907.013C847.3 907.523 852.392 907.158 852.142 901.612L851.804 908.762C852.116 910.378 853.299 912.759 855.541 909.354L857.639 888.493C857.439 886.955 856.387 884.766 853.777 888.318L852.835 895.382C853.685 893.289 853.762 888.911 847.262 888.138L850.324 850.661C847.574 845.162 839.972 835.654 831.569 841.61C827.973 838.99 820.149 836.466 817.622 847.325L813.491 886.575L791.957 888.173C792.453 881.749 788.656 867.912 779.009 870.08C772.451 871.555 768.824 885.637 772.812 888.25L766.666 891.35L772.251 895.244C769.556 899.743 767.069 910.529 772.411 913.819C779.03 917.897 788.902 913.739 790.444 898.197Z" stroke="#232323" stroke-width="2"/>
<path d="M421.307 838.505H886.752C897.245 838.505 905.752 847.012 905.752 857.505V1036.68H402.307V857.505C402.307 847.012 410.813 838.505 421.307 838.505Z" fill="#6DD2A7" stroke="#232323" stroke-width="2"/>
<path d="M630.702 680.294C637.378 675.507 646.302 675.289 653.203 679.744L880.475 826.44C897.23 837.254 889.571 863.243 869.629 863.243H437.782C418.344 863.243 410.331 838.317 426.127 826.99L630.702 680.294Z" fill="#6DD2A7"/>
<circle cx="654.083" cy="844.682" r="41.5872" fill="#F3E6D6" stroke="#232323" stroke-width="2"/>
<line x1="653.879" y1="802.95" x2="653.879" y2="886.421" stroke="#232323" stroke-width="3"/>
<line x1="613.201" y1="845.736" x2="696.672" y2="845.736" stroke="#232323" stroke-width="3"/>
<rect x="379.117" y="840.08" width="326.568" height="30.8587" rx="15.4294" transform="rotate(-38.0503 379.117 840.08)" fill="#FF9C45" stroke="#232323" stroke-width="2"/>
<path d="M625.77 935.352H681.568C692.062 935.352 700.568 943.858 700.568 954.352V1037.01H606.77V954.352C606.77 943.858 615.276 935.352 625.77 935.352Z" fill="#A39ACF" stroke="#232323" stroke-width="2"/>
<circle cx="685.743" cy="985.111" r="4.00441" fill="#E55928" stroke="#232323" stroke-width="2"/>
<path d="M468.082 997.217H507.547V1036.68H477.082C472.111 1036.68 468.082 1032.65 468.082 1027.68V997.217Z" fill="#2CB46C" stroke="#232323" stroke-width="2"/>
<path d="M508.117 997.217H547.582V1027.68C547.582 1032.65 543.553 1036.68 538.582 1036.68H508.117V997.217Z" fill="#FFCA40" stroke="#232323" stroke-width="2"/>
<path d="M477.082 957.181H507.547V996.646H468.082V966.181C468.082 961.21 472.111 957.181 477.082 957.181Z" fill="#FFCA40" stroke="#232323" stroke-width="2"/>
<path d="M508.117 957.181H538.582C543.553 957.181 547.582 961.21 547.582 966.181V996.646H508.117V957.181Z" fill="#2CB46C" stroke="#232323" stroke-width="2"/>
<path d="M759.768 996.506H799.233V1035.97H768.768C763.797 1035.97 759.768 1031.94 759.768 1026.97V996.506Z" fill="#2CB46C" stroke="#232323" stroke-width="2"/>
<path d="M768.768 956.47H799.233V995.935H759.768V965.47C759.768 960.5 763.797 956.47 768.768 956.47Z" fill="#FFCA40" stroke="#232323" stroke-width="2"/>
<path d="M552.411 821.391C546.096 823.893 534.681 833.116 539.543 849.988" stroke="#232323" stroke-width="2"/>
<path d="M524.171 814.958C530.128 816.269 540.685 824.467 535.252 846.772C527.388 843.436 514.162 832.402 524.171 814.958Z" fill="#2CB46C" stroke="#232323" stroke-width="2"/>
<path d="M551.694 819.607C541.113 813.602 547.285 809.002 551.694 807.453C555.697 793.441 562.894 801.615 565.992 807.453C574.214 812.815 570.282 816.747 563.132 821.752C559.701 830.045 554.077 823.777 551.694 819.607Z" fill="#F48ABA" stroke="#232323" stroke-width="2"/>
<path d="M765.415 813.039C771.73 815.542 783.145 824.764 778.284 841.636" stroke="#232323" stroke-width="2"/>
<path d="M765.42 811.255C776 805.25 769.828 800.651 765.42 799.102C761.416 785.089 754.219 793.263 751.121 799.102C742.9 804.464 746.832 808.396 753.981 813.4C757.412 821.693 763.036 815.426 765.42 811.255Z" fill="#4E8DFF" stroke="#232323" stroke-width="2"/>
<path d="M490.932 843.558C468.627 836.408 466.863 852.971 468.77 862.145H560.994C564.712 844.988 553.726 844.987 547.768 847.132C539.189 851.993 534.185 846.774 532.755 843.558C524.176 827.472 509.639 836.289 507.375 841.055C501.299 849.992 494.388 844.868 490.932 843.558Z" fill="#2CB46C" stroke="#232323" stroke-width="2"/>
<path d="M477.955 903.997C468.13 903.997 459.475 878.145 461.58 861.817H572.694C574.033 889.563 560.776 901.498 553.98 903.997C531.056 903.846 483.759 903.997 477.955 903.997Z" fill="#F89334" stroke="#232323" stroke-width="2"/>
<circle cx="557.873" cy="813.201" r="3.57458" fill="#FFCA40"/>
<circle cx="758.764" cy="804.621" r="3.57458" fill="#FFCA40"/>
<path d="M759.34 843.172C737.035 836.023 735.272 852.585 737.178 861.76H829.402C833.12 844.603 822.134 844.602 816.176 846.746C807.597 851.608 802.593 846.389 801.163 843.172C792.584 827.087 778.047 835.904 775.784 840.67C769.707 849.607 762.796 844.483 759.34 843.172Z" fill="#2CB46C" stroke="#232323" stroke-width="2"/>
<path d="M742.473 903.997C732.648 903.997 723.993 878.145 726.098 861.817H837.212C838.551 889.563 825.294 901.498 818.498 903.997C795.573 903.846 748.277 903.997 742.473 903.997Z" fill="#F89334" stroke="#232323" stroke-width="2"/>
<rect x="651.227" y="648.014" width="335.121" height="30.8587" rx="15.4294" transform="rotate(34.792 651.227 648.014)" fill="#FF9C45" stroke="#232323" stroke-width="2"/>
</g>
<defs>
<clipPath id="clip0_905_370">
<rect width="768" height="1024" fill="white"/>
</clipPath>
</defs>
</svg>
