<svg width="1920" height="1080" viewBox="0 0 1920 1080" fill="none" xmlns="http://www.w3.org/2000/svg">
<g clip-path="url(#clip0_791_8379)">
<rect width="1920" height="1080" fill="#96DAFA"/>
<path d="M449 552C449 541.507 457.507 533 468 533H717C727.493 533 736 541.507 736 552V1079H449V552Z" fill="#F48ABA" stroke="#232323" stroke-width="2"/>
<path d="M-50 -24C-50 -34.4934 -41.4934 -43 -31 -43H394C404.493 -43 413 -34.4934 413 -24V662H-50V-24Z" fill="#A39ACF" stroke="#232323" stroke-width="2"/>
<path d="M-15 393C-15 382.507 -6.49341 374 4 374H429C439.493 374 448 382.507 448 393V1079H-15V393Z" fill="#FFCA40" stroke="#232323" stroke-width="2"/>
<path d="M128 778C128 767.507 136.507 759 147 759H286C296.493 759 305 767.507 305 778V1079H128V778Z" fill="#A39ACF" stroke="#232323" stroke-width="2"/>
<path d="M-15 1030H117C121.971 1030 126 1034.03 126 1039V1079H-15V1030Z" fill="#232323" stroke="#232323" stroke-width="2"/>
<path d="M-16 1037V996.342C-6.69919 1006.39 2.21409 1000.53 5.50813 996.342C43.2927 958.673 63.6382 1028.63 78.1707 1008.3C89.7967 992.037 115.568 995.545 127 999.331V1037H-16Z" fill="#2CB46C" stroke="#232323" stroke-width="2"/>
<path d="M305 1042V1010.53C321.395 989.974 330.409 1024.5 344.166 1015.25C387.43 959.138 383.331 1046.72 402.003 1015.25C416.941 990.08 438.892 996.723 448 1003.19V1042H305Z" fill="#2CB46C" stroke="#232323" stroke-width="2"/>
<path d="M304 1039C304 1033.48 308.477 1029 314 1029H439C444.523 1029 449 1033.48 449 1039V1080H304V1039Z" fill="#232323"/>
<circle cx="276.5" cy="909.5" r="8.5" fill="#E55928" stroke="#232323" stroke-width="2"/>
<path fill-rule="evenodd" clip-rule="evenodd" d="M304.92 534.96V663.779H111V534.96V533.575H111.01C111.75 480.664 154.873 438 207.96 438C261.047 438 304.17 480.664 304.911 533.575H304.92V534.96Z" fill="#232323"/>
<path fill-rule="evenodd" clip-rule="evenodd" d="M289 537.5V647.107H124V537.5V536.322H124.008C124.638 491.301 161.33 455 206.5 455C251.67 455 288.362 491.301 288.992 536.322H289V537.5Z" fill="#F3E6D6"/>
<line x1="208.5" y1="455" x2="208.5" y2="647" stroke="#232323" stroke-width="5"/>
<line x1="122" y1="549.5" x2="290" y2="549.5" stroke="#232323" stroke-width="5"/>
<path d="M402 840C402 844 399.671 847.725 395.692 850.493C391.718 853.258 386.173 855 380 855C373.827 855 368.282 853.258 364.308 850.493C360.329 847.725 358 844 358 840C358 836 360.329 832.275 364.308 829.507C368.282 826.742 373.827 825 380 825C386.173 825 391.718 826.742 395.692 829.507C399.671 832.275 402 836 402 840Z" fill="#F3E6D6" stroke="#232323" stroke-width="2"/>
<path d="M426.539 829.5H336.539C317.039 829.5 352.039 778 394.539 792C428.539 803.2 430.039 821.667 426.539 829.5Z" fill="#F48ABA" stroke="#232323" stroke-width="2"/>
<path d="M75.3827 840.099C75.3827 844.073 73.0744 847.773 69.1319 850.523C65.1929 853.269 59.6975 855 53.5799 855C47.4623 855 41.9669 853.269 38.0279 850.523C34.0854 847.773 31.7771 844.073 31.7771 840.099C31.7771 836.126 34.0854 832.425 38.0279 829.676C41.9669 826.929 47.4623 825.199 53.5799 825.199C59.6975 825.199 65.1929 826.929 69.1319 829.676C73.0744 832.425 75.3827 836.126 75.3827 840.099Z" fill="#F3E6D6" stroke="#232323" stroke-width="2"/>
<path d="M99.7198 829.665H10.4914C-8.84138 829.665 25.8586 778.484 67.9942 792.398C101.703 803.528 103.19 821.88 99.7198 829.665Z" fill="#4E8DFF" stroke="#232323" stroke-width="2"/>
<path d="M123.408 634.223C75.4084 631.823 86.4084 652.223 97.9084 662.723H202.908C204.908 621.522 171.742 626.556 154.908 634.223C140.908 644.622 128.075 638.556 123.408 634.223Z" fill="#2CB46C" stroke="#232323" stroke-width="2"/>
<path d="M269.989 644.562C245.989 642.162 243.655 658.896 245.489 667.562C265.322 670.062 308.489 673.562 322.489 667.562C336.489 661.562 333.655 653.395 330.489 650.062C320.889 631.262 304.155 638.562 296.989 644.562C286.589 650.163 274.655 646.896 269.989 644.562Z" fill="#2CB46C" stroke="#232323" stroke-width="2"/>
<path d="M131.905 707.999C111.362 707.999 93.264 680.419 97.6661 663H330C332.8 692.6 305.08 705.332 290.87 707.999C242.936 707.837 144.041 707.999 131.905 707.999Z" fill="#E7882E" stroke="#232323" stroke-width="2"/>
<path d="M115.905 137.999C95.3616 137.999 77.264 110.419 81.6661 93H314C316.8 122.6 289.08 135.332 274.87 137.999C226.936 137.837 128.041 137.999 115.905 137.999Z" fill="#4E8DFF" stroke="#232323" stroke-width="2"/>
<path d="M207.529 347.212V306H225.13V347.212C225.949 361.636 236.181 360.276 246.414 361.636C257.875 363.16 256.783 369.879 254.6 374H182.561C180.924 364.521 182.152 364.109 196.069 361.636C207.202 359.658 207.529 352.034 207.529 347.212Z" fill="#E38835" stroke="#232323" stroke-width="2"/>
<rect x="54" y="266" width="81" height="62" rx="9" fill="#F48ABA" stroke="#232323" stroke-width="2"/>
<rect x="54" y="328" width="39" height="45" rx="9" fill="#F48ABA" stroke="#232323" stroke-width="2"/>
<path d="M65.7115 342.379C61.2862 336.443 65.5229 328 72.9273 328H121.585C123.723 328 125.792 328.762 127.42 330.149L139.123 340.117C144.928 345.061 142.339 354.533 134.825 355.836L87.9557 363.965C84.6136 364.544 81.2293 363.196 79.202 360.476L65.7115 342.379Z" fill="#F48ABA" stroke="#232323" stroke-width="2"/>
<rect x="80" y="354" width="68" height="20" rx="9" fill="#F48ABA" stroke="#232323" stroke-width="2"/>
<rect x="-1" y="1" width="81" height="62" rx="9" transform="matrix(-1 0 0 1 370 265)" fill="#2CB46C" stroke="#232323" stroke-width="2"/>
<rect x="-1" y="1" width="39" height="45" rx="9" transform="matrix(-1 0 0 1 370 327)" fill="#2CB46C" stroke="#232323" stroke-width="2"/>
<path d="M359.288 342.379C363.714 336.443 359.477 328 352.073 328H303.415C301.277 328 299.208 328.762 297.58 330.149L285.877 340.117C280.072 345.061 282.661 354.533 290.175 355.836L337.044 363.965C340.386 364.544 343.771 363.196 345.798 360.476L359.288 342.379Z" fill="#2CB46C" stroke="#232323" stroke-width="2"/>
<rect x="-1" y="1" width="68" height="20" rx="9" transform="matrix(-1 0 0 1 344 353)" fill="#2CB46C" stroke="#232323" stroke-width="2"/>
<path d="M17.9999 348.65V220.65L-7 218.15V371.65C10.5 373.15 42.4999 374.15 30.4999 366.15C18.4999 358.15 17.1665 351.15 17.9999 348.65Z" fill="#E38835" stroke="#232323" stroke-width="2"/>
<path d="M32 213.649C24.4 229.649 6.5 230.983 -1.5 229.649V151.65C6.1 146.85 13 149.65 15.5 151.65C27.1 162.05 50.3333 165.983 60.5 166.649C73.5 166.149 89.5 173.149 93 201.149C95.8 223.549 53.5 218.816 32 213.649Z" fill="#2CB46C" stroke="#232323" stroke-width="2"/>
<rect x="165" y="290" width="106" height="17" rx="8.5" fill="#E38835" stroke="#232323" stroke-width="2"/>
<path d="M113 37H169V93H122C117.029 93 113 88.9706 113 84V37Z" fill="#F3E6D6" stroke="#232323" stroke-width="2"/>
<path d="M169 37H225V93H169V37Z" fill="#F3E6D6" stroke="#232323" stroke-width="2"/>
<path d="M225 37H281V84C281 88.9706 276.971 93 272 93H225V37Z" fill="#F3E6D6" stroke="#232323" stroke-width="2"/>
<path d="M113 -10C113 -14.9706 117.029 -19 122 -19H160C164.971 -19 169 -14.9706 169 -10V37H113V-10Z" fill="#F3E6D6" stroke="#232323" stroke-width="2"/>
<rect x="169" y="-19" width="56" height="56" fill="#F3E6D6" stroke="#232323" stroke-width="2"/>
<path d="M225 -10C225 -14.9706 229.029 -19 234 -19H272C276.971 -19 281 -14.9706 281 -10V37H225V-10Z" fill="#F3E6D6" stroke="#232323" stroke-width="2"/>
<path d="M128.656 56.6596C76.5001 35 69.4533 79.6114 87.8541 93H255.862C259.062 40.465 205.993 46.8835 179.058 56.6596C156.657 69.9199 140.5 63 128.656 56.6596Z" fill="#2CB46C" stroke="#232323" stroke-width="2"/>
<rect x="491" y="798" width="204" height="31" rx="9" fill="#FFCA40" stroke="#232323" stroke-width="2"/>
<path d="M510 724.682V737.462M677 722V737.462M510 737.462V798H561.514M510 737.462H561.514M677 737.462V798H618.578M677 737.462H618.578M561.514 737.462V798M561.514 737.462H618.578M561.514 798H618.578M618.578 737.462V798" stroke="#232323" stroke-width="2"/>
<circle cx="509.5" cy="718.5" r="6.5" fill="#232323"/>
<ellipse cx="677" cy="715.5" rx="6" ry="6.5" fill="#232323"/>
<circle cx="587" cy="676" r="49" fill="#F3E6D6" stroke="#232323" stroke-width="2"/>
<line x1="586.5" y1="627" x2="586.5" y2="725" stroke="#232323" stroke-width="3"/>
<line x1="539" y1="677.5" x2="637" y2="677.5" stroke="#232323" stroke-width="3"/>
<circle cx="587" cy="980" r="49" fill="#F3E6D6" stroke="#232323" stroke-width="2"/>
<line x1="586.5" y1="931" x2="586.5" y2="1029" stroke="#232323" stroke-width="3"/>
<line x1="539" y1="981.5" x2="637" y2="981.5" stroke="#232323" stroke-width="3"/>
<path d="M609 830C609 864.5 682.5 901 735.5 876" stroke="#232323" stroke-width="3"/>
<rect x="608.695" y="839.537" width="28" height="28" rx="4" transform="rotate(52.3129 608.695 839.537)" fill="#2CB46C" stroke="#232323" stroke-width="2"/>
<rect x="634.226" y="867.33" width="28" height="28" rx="4" transform="rotate(25.1412 634.226 867.33)" fill="#4E8DFF" stroke="#232323" stroke-width="2"/>
<rect x="670.92" y="882.223" width="28" height="28" rx="4" transform="rotate(7.58724 670.92 882.223)" fill="#F3E6D6" stroke="#232323" stroke-width="2"/>
<rect x="706.221" y="884.238" width="28" height="28" rx="4" transform="rotate(-12.408 706.221 884.238)" fill="#E72E2E" stroke="#232323" stroke-width="2"/>
<path d="M1687.76 -158.072C1673.95 -168.09 1679.32 -189.819 1696.2 -192.256L1984.89 -233.926C1991.08 -234.821 1997.32 -232.607 2001.56 -228.007L2169.53 -46.0139C2176.57 -38.3883 2176.18 -26.5267 2168.67 -19.3698L2054.85 89.0471C2048.21 95.3693 2038 96.0509 2030.58 90.6677L1687.76 -158.072Z" fill="#F48ABA" stroke="#232323" stroke-width="2"/>
<mask id="path-57-inside-1_791_8379" fill="white">
<path fill-rule="evenodd" clip-rule="evenodd" d="M2010.92 97.6445C2010.97 95.318 2011 92.9846 2011 90.6445C2011 -66.7566 1883.4 -194.355 1726 -194.355C1568.6 -194.355 1441 -66.7566 1441 90.6445C1441 92.9846 1441.03 95.318 1441.08 97.6445H1441V1079.64H2011V97.6445H2010.92Z"/>
</mask>
<path fill-rule="evenodd" clip-rule="evenodd" d="M2010.92 97.6445C2010.97 95.318 2011 92.9846 2011 90.6445C2011 -66.7566 1883.4 -194.355 1726 -194.355C1568.6 -194.355 1441 -66.7566 1441 90.6445C1441 92.9846 1441.03 95.318 1441.08 97.6445H1441V1079.64H2011V97.6445H2010.92Z" fill="#A39ACF"/>
<path d="M2010.92 97.6445L2008.92 97.5963L2008.87 99.6445H2010.92V97.6445ZM1441.08 97.6445V99.6445H1443.13L1443.08 97.5963L1441.08 97.6445ZM1441 97.6445V95.6445H1439V97.6445H1441ZM1441 1079.64H1439V1081.64H1441V1079.64ZM2011 1079.64V1081.64H2013V1079.64H2011ZM2011 97.6445H2013V95.6445H2011V97.6445ZM2009 90.6445C2009 92.9685 2008.97 95.2859 2008.92 97.5963L2012.92 97.6927C2012.97 95.3501 2013 93.0006 2013 90.6445H2009ZM1726 -192.355C1882.3 -192.355 2009 -65.6521 2009 90.6445H2013C2013 -67.8612 1884.51 -196.355 1726 -196.355V-192.355ZM1443 90.6445C1443 -65.6521 1569.7 -192.355 1726 -192.355V-196.355C1567.49 -196.355 1439 -67.8612 1439 90.6445H1443ZM1443.08 97.5963C1443.03 95.2859 1443 92.9685 1443 90.6445H1439C1439 93.0006 1439.03 95.3501 1439.08 97.6927L1443.08 97.5963ZM1441 99.6445H1441.08V95.6445H1441V99.6445ZM1443 1079.64V97.6445H1439V1079.64H1443ZM2011 1077.64H1441V1081.64H2011V1077.64ZM2009 97.6445V1079.64H2013V97.6445H2009ZM2010.92 99.6445H2011V95.6445H2010.92V99.6445Z" fill="#232323" mask="url(#path-57-inside-1_791_8379)"/>
<path fill-rule="evenodd" clip-rule="evenodd" d="M1536 140.062V130.645H1536.25C1537.35 110.422 1541.97 90.5051 1549.93 71.7535C1559.13 50.0969 1572.61 30.4192 1589.6 13.8439C1606.59 -2.73132 1626.77 -15.8795 1648.97 -24.85C1671.17 -33.8205 1694.97 -38.4375 1719 -38.4375C1743.03 -38.4375 1766.83 -33.8205 1789.03 -24.85C1811.23 -15.8795 1831.41 -2.73131 1848.4 13.8439C1865.39 30.4192 1878.87 50.0969 1888.07 71.7535C1896.03 90.5051 1900.65 110.422 1901.75 130.645H1902V140.063V190.645H1536V140.062Z" fill="#232323"/>
<path fill-rule="evenodd" clip-rule="evenodd" d="M1557 139.579V131.242H1557.23C1558.2 113.34 1562.28 95.7083 1569.33 79.1086C1577.47 59.9372 1589.41 42.5176 1604.45 27.8444C1619.49 13.1712 1637.35 1.53185 1657.01 -6.40922C1676.66 -14.3503 1697.73 -18.4375 1719 -18.4375C1740.27 -18.4375 1761.34 -14.3503 1780.99 -6.40921C1800.65 1.53185 1818.51 13.1713 1833.55 27.8444C1848.59 42.5176 1860.53 59.9372 1868.67 79.1086C1875.72 95.7083 1879.8 113.34 1880.77 131.242H1881V139.579V184.356H1557V139.579Z" fill="#F3E6D6"/>
<mask id="path-61-inside-2_791_8379" fill="white">
<path fill-rule="evenodd" clip-rule="evenodd" d="M1845 907.1V1080H1608V907.1V906.131H1608.01C1608.81 863.997 1661.55 830 1726.5 830C1791.45 830 1844.19 863.997 1844.99 906.131H1845V907.1Z"/>
</mask>
<path fill-rule="evenodd" clip-rule="evenodd" d="M1845 907.1V1080H1608V907.1V906.131H1608.01C1608.81 863.997 1661.55 830 1726.5 830C1791.45 830 1844.19 863.997 1844.99 906.131H1845V907.1Z" fill="#4E8DFF"/>
<path d="M1845 1080V1082H1847V1080H1845ZM1608 1080H1606V1082H1608V1080ZM1608 906.131V904.131H1606V906.131H1608ZM1608.01 906.131V908.131H1609.97L1610.01 906.169L1608.01 906.131ZM1844.99 906.131L1842.99 906.169L1843.03 908.131H1844.99V906.131ZM1845 906.131H1847V904.131H1845V906.131ZM1843 907.1V1080H1847V907.1H1843ZM1845 1078H1608V1082H1845V1078ZM1610 1080V907.1H1606V1080H1610ZM1610 907.1V906.131H1606V907.1H1610ZM1608 908.131H1608.01V904.131H1608V908.131ZM1610.01 906.169C1610.39 885.989 1623.22 867.49 1644.28 853.947C1665.32 840.417 1694.35 832 1726.5 832V828C1693.7 828 1663.89 836.581 1642.12 850.583C1620.37 864.572 1606.42 884.139 1606.01 906.093L1610.01 906.169ZM1726.5 832C1758.65 832 1787.68 840.417 1808.72 853.947C1829.78 867.49 1842.61 885.989 1842.99 906.169L1846.99 906.093C1846.58 884.139 1832.63 864.572 1810.88 850.583C1789.11 836.581 1759.3 828 1726.5 828V832ZM1844.99 908.131H1845V904.131H1844.99V908.131ZM1843 906.131V907.1H1847V906.131H1843Z" fill="#232323" mask="url(#path-61-inside-2_791_8379)"/>
<circle cx="1825.5" cy="962.062" r="8.5" fill="#E55928" stroke="#232323" stroke-width="2"/>
<path d="M1496 687.969H1604.05V796.023H1505C1500.03 796.023 1496 791.994 1496 787.023V687.969Z" fill="#F3E6D6" stroke="#232323" stroke-width="2"/>
<path d="M1602.26 687.969H1710.31V787.023C1710.31 791.994 1706.28 796.023 1701.31 796.023H1602.26V687.969Z" fill="#F3E6D6" stroke="#232323" stroke-width="2"/>
<path d="M1496 590.707C1496 585.736 1500.03 581.707 1505 581.707H1604.05V689.762H1496V590.707Z" fill="#F3E6D6" stroke="#232323" stroke-width="2"/>
<path d="M1602.26 581.707H1701.31C1706.28 581.707 1710.31 585.736 1710.31 590.707V689.762H1602.26V581.707Z" fill="#F3E6D6" stroke="#232323" stroke-width="2"/>
<path d="M1742.31 685.824H1850.37V793.879H1751.31C1746.34 793.879 1742.31 789.849 1742.31 784.879V685.824Z" fill="#F3E6D6" stroke="#232323" stroke-width="2"/>
<path d="M1848.57 685.824H1956.63V784.879C1956.63 789.849 1952.6 793.879 1947.63 793.879H1848.57V685.824Z" fill="#F3E6D6" stroke="#232323" stroke-width="2"/>
<path d="M1742.31 588.562C1742.31 583.592 1746.34 579.562 1751.31 579.562H1850.37V687.617H1742.31V588.562Z" fill="#F3E6D6" stroke="#232323" stroke-width="2"/>
<path d="M1848.57 579.562H1947.63C1952.6 579.562 1956.63 583.592 1956.63 588.562V687.617H1848.57V579.562Z" fill="#F3E6D6" stroke="#232323" stroke-width="2"/>
<path d="M1496 441.969H1604.05V550.023H1505C1500.03 550.023 1496 545.994 1496 541.023V441.969Z" fill="#F3E6D6" stroke="#232323" stroke-width="2"/>
<path d="M1602.26 441.969H1710.31V541.023C1710.31 545.994 1706.28 550.023 1701.31 550.023H1602.26V441.969Z" fill="#F3E6D6" stroke="#232323" stroke-width="2"/>
<path d="M1496 344.707C1496 339.736 1500.03 335.707 1505 335.707H1604.05V443.762H1496V344.707Z" fill="#F3E6D6" stroke="#232323" stroke-width="2"/>
<path d="M1602.26 335.707H1701.31C1706.28 335.707 1710.31 339.736 1710.31 344.707V443.762H1602.26V335.707Z" fill="#F3E6D6" stroke="#232323" stroke-width="2"/>
<path d="M1742.31 439.824H1850.37V547.879H1751.31C1746.34 547.879 1742.31 543.849 1742.31 538.879V439.824Z" fill="#F3E6D6" stroke="#232323" stroke-width="2"/>
<path d="M1848.57 439.824H1956.63V538.879C1956.63 543.849 1952.6 547.879 1947.63 547.879H1848.57V439.824Z" fill="#F3E6D6" stroke="#232323" stroke-width="2"/>
<path d="M1742.31 342.562C1742.31 337.592 1746.34 333.562 1751.31 333.562H1850.37V441.617H1742.31V342.562Z" fill="#F3E6D6" stroke="#232323" stroke-width="2"/>
<path d="M1848.57 333.562H1947.63C1952.6 333.562 1956.63 337.592 1956.63 342.562V441.617H1848.57V333.562Z" fill="#F3E6D6" stroke="#232323" stroke-width="2"/>
<path d="M1596.73 151.769C1532.03 148.495 1546.85 176.322 1562.36 190.645H1703.88C1706.58 134.444 1661.87 141.311 1639.18 151.769C1620.31 165.954 1603.02 157.679 1596.73 151.769Z" fill="#2CB46C" stroke="#232323" stroke-width="2"/>
<path d="M1866.02 150.625C1829.5 146.975 1825.95 172.425 1828.74 185.606C1858.92 189.408 1924.59 194.731 1945.89 185.606C1967.19 176.48 1962.88 164.059 1958.06 158.989C1943.45 130.397 1918 141.5 1907.09 150.625C1891.27 159.143 1873.12 154.174 1866.02 150.625Z" fill="#2CB46C" stroke="#232323" stroke-width="2"/>
<path d="M1569.91 258.645C1530.53 258.645 1495.84 213.29 1504.28 184.645H1949.62C1954.99 233.322 1901.85 254.26 1874.62 258.645C1782.73 258.379 1593.17 258.645 1569.91 258.645Z" fill="#FFCA40" stroke="#232323" stroke-width="2"/>
<line x1="1714.5" y1="-18.4375" x2="1714.5" y2="184.562" stroke="#232323" stroke-width="5"/>
<line x1="1566" y1="80.0625" x2="1874" y2="80.0866" stroke="#232323" stroke-width="5"/>
<path d="M1309.48 901.137L1278.31 894.892C1276.15 916.632 1262.35 922.447 1253.09 916.744C1245.61 912.142 1249.09 897.055 1252.86 890.762L1245.05 885.314L1253.65 880.979C1248.07 877.324 1253.14 857.626 1262.32 855.564C1275.81 852.53 1281.12 871.886 1280.43 880.872L1310.55 878.635L1316.33 823.735C1319.86 808.545 1330.8 812.076 1335.83 815.74C1347.59 807.409 1358.22 820.709 1362.07 828.401L1357.79 880.823C1363.74 881.531 1365.75 884.402 1366.09 887.122L1366.9 881.074C1370.55 876.106 1372.02 879.167 1372.3 881.319L1369.37 910.499C1366.23 915.261 1364.58 911.931 1364.14 909.67L1364.52 901.71C1363.63 907.513 1357.49 907.869 1354.23 907.224L1351.45 953.175C1345.24 973.263 1328.92 971.272 1321.53 967.766C1304.89 976.445 1302.62 963.029 1303.57 955.236L1309.48 901.137Z" fill="white" stroke="#232323" stroke-width="2"/>
<mask id="path-86-inside-3_791_8379" fill="white">
<path d="M734 820C734 808.954 742.954 800 754 800H1421C1432.05 800 1441 808.954 1441 820V1080H734V820Z"/>
</mask>
<path d="M734 820C734 808.954 742.954 800 754 800H1421C1432.05 800 1441 808.954 1441 820V1080H734V820Z" fill="#6DD2A7"/>
<path d="M732 820C732 807.849 741.85 798 754 798H1419C1431.15 798 1441 807.849 1441 820C1441 810.059 1432.05 802 1421 802H754C744.059 802 736 810.059 736 820H732ZM1441 1082H732L736 1078H1441V1082ZM732 1082V820C732 807.849 741.85 798 754 798V802C744.059 802 736 810.059 736 820V1078L732 1082ZM1441 800V1080V800Z" fill="#232323" mask="url(#path-86-inside-3_791_8379)"/>
<path d="M1059.28 576.933C1065.96 572.146 1074.88 571.928 1081.78 576.382L1426.98 799.196C1443.74 810.011 1436.08 836 1416.14 836H760.212C740.774 836 732.76 811.074 748.557 799.747L1059.28 576.933Z" fill="#6DD2A7"/>
<circle cx="1087.57" cy="810.033" r="58.5696" fill="#F3E6D6" stroke="#232323" stroke-width="2"/>
<line x1="1086.69" y1="751.655" x2="1086.69" y2="868.412" stroke="#232323" stroke-width="3"/>
<line x1="1030.38" y1="812.107" x2="1147.14" y2="812.107" stroke="#232323" stroke-width="3"/>
<rect x="702.404" y="803.535" width="457.59" height="43.9617" rx="19" transform="rotate(-38.0503 702.404 803.535)" fill="#FF9C45" stroke="#232323" stroke-width="2"/>
<path d="M1021 955.465C1021 944.971 1029.51 936.465 1040 936.465H1134C1144.49 936.465 1153 944.971 1153 955.465V1079.46H1021V955.465Z" fill="#A39ACF" stroke="#232323" stroke-width="2"/>
<circle cx="1131.86" cy="1006.46" r="6" fill="#E55928" stroke="#232323" stroke-width="2"/>
<path d="M827 1023H883V1079H836C831.029 1079 827 1074.97 827 1070V1023Z" fill="#2CB46C" stroke="#232323" stroke-width="2"/>
<path d="M883 1023H939V1070C939 1074.97 934.97 1079 930 1079H883V1023Z" fill="#FFCA40" stroke="#232323" stroke-width="2"/>
<path d="M827 976C827 971.029 831.029 967 836 967H883V1023H827V976Z" fill="#FFCA40" stroke="#232323" stroke-width="2"/>
<path d="M883 967H930C934.97 967 939 971.029 939 976V1023H883V967Z" fill="#2CB46C" stroke="#232323" stroke-width="2"/>
<path d="M1235 1022H1291V1078H1244C1239.03 1078 1235 1073.97 1235 1069V1022Z" fill="#2CB46C" stroke="#232323" stroke-width="2"/>
<path d="M1291 1022H1347V1069C1347 1073.97 1342.97 1078 1338 1078H1291V1022Z" fill="#FFCA40" stroke="#232323" stroke-width="2"/>
<path d="M1235 975C1235 970.029 1239.03 966 1244 966H1291V1022H1235V975Z" fill="#FFCA40" stroke="#232323" stroke-width="2"/>
<path d="M1291 966H1338C1342.97 966 1347 970.029 1347 975V1022H1291V966Z" fill="#2CB46C" stroke="#232323" stroke-width="2"/>
<path d="M945.361 777.465C936.528 780.965 920.561 793.865 927.361 817.465" stroke="#232323" stroke-width="2"/>
<path d="M905.861 768.465C914.194 770.298 928.961 781.765 921.361 812.965C910.361 808.298 891.861 792.865 905.861 768.465Z" fill="#2CB46C" stroke="#232323" stroke-width="2"/>
<path d="M944.361 774.965C929.561 766.565 938.194 760.131 944.361 757.965C949.961 738.365 960.027 749.798 964.361 757.965C975.861 765.465 970.361 770.965 960.361 777.965C955.561 789.565 947.694 780.798 944.361 774.965Z" fill="#F48ABA" stroke="#232323" stroke-width="2"/>
<path d="M1243.3 765.787C1252.13 769.287 1268.1 782.187 1261.3 805.787" stroke="#232323" stroke-width="2"/>
<path d="M1282.8 756.787C1274.47 758.62 1259.7 770.087 1267.3 801.287C1278.3 796.62 1296.8 781.187 1282.8 756.787Z" fill="#2CB46C" stroke="#232323" stroke-width="2"/>
<path d="M1243.3 763.287C1258.1 754.887 1249.47 748.454 1243.3 746.287C1237.7 726.687 1227.63 738.12 1223.3 746.287C1211.8 753.787 1217.3 759.287 1227.3 766.287C1232.1 777.887 1239.97 769.12 1243.3 763.287Z" fill="#4E8DFF" stroke="#232323" stroke-width="2"/>
<path d="M859.361 808.464C828.161 798.464 825.694 821.631 828.361 834.464H957.361C962.561 810.465 947.194 810.464 938.861 813.463C926.861 820.263 919.861 812.964 917.861 808.464C905.861 785.964 885.528 798.297 882.361 804.963C873.861 817.465 864.194 810.297 859.361 808.464Z" fill="#2CB46C" stroke="#232323" stroke-width="2"/>
<path d="M841.211 893C827.468 893 815.362 856.839 818.306 834H973.729C975.602 872.81 957.058 889.504 947.553 893C915.486 892.789 849.33 893 841.211 893Z" fill="#F89334" stroke="#232323" stroke-width="2"/>
<circle cx="953" cy="766" r="5" fill="#FFCA40"/>
<circle cx="1234" cy="754" r="5" fill="#FFCA40"/>
<path d="M1234.8 807.923C1203.6 797.923 1201.14 821.09 1203.8 833.923H1332.8C1338 809.924 1322.64 809.923 1314.3 812.922C1302.3 819.722 1295.3 812.423 1293.3 807.923C1281.3 785.423 1260.97 797.756 1257.8 804.422C1249.3 816.924 1239.64 809.756 1234.8 807.923Z" fill="#2CB46C" stroke="#232323" stroke-width="2"/>
<path d="M1211.21 893C1197.47 893 1185.36 856.839 1188.31 834H1343.73C1345.6 872.81 1327.06 889.504 1317.55 893C1285.49 892.789 1219.33 893 1211.21 893Z" fill="#F89334" stroke="#232323" stroke-width="2"/>
<rect x="1083.48" y="534.392" width="469.553" height="43.9617" rx="19" transform="rotate(34.792 1083.48 534.392)" fill="#FF9C45" stroke="#232323" stroke-width="2"/>
</g>
<defs>
<clipPath id="clip0_791_8379">
<rect width="1920" height="1080" fill="white"/>
</clipPath>
</defs>
</svg>
