<svg width="1920" height="1080" viewBox="0 0 1920 1080" fill="none" xmlns="http://www.w3.org/2000/svg">
<g clip-path="url(#clip0_791_8379)">
<rect width="1920" height="1080" fill="#96DAFA"/>
<path d="M449 552C449 541.507 457.507 533 468 533H717C727.493 533 736 541.507 736 552V1079H449V552Z" fill="#F48ABA" stroke="#232323" stroke-width="2"/>
<path d="M-50 -24C-50 -34.4934 -41.4934 -43 -31 -43H394C404.493 -43 413 -34.4934 413 -24V662H-50V-24Z" fill="#A39ACF" stroke="#232323" stroke-width="2"/>
<path d="M-15 393C-15 382.507 -6.49341 374 4 374H429C439.493 374 448 382.507 448 393V1079H-15V393Z" fill="#FFCA40" stroke="#232323" stroke-width="2"/>
<path d="M128 778C128 767.507 136.507 759 147 759H286C296.493 759 305 767.507 305 778V1079H128V778Z" fill="#A39ACF" stroke="#232323" stroke-width="2"/>
<path d="M-15 1030H117C121.971 1030 126 1034.03 126 1039V1079H-15V1030Z" fill="#232323" stroke="#232323" stroke-width="2"/>
<path d="M-16 1037V996.342C-6.69919 1006.39 2.21409 1000.53 5.50813 996.342C43.2927 958.673 63.6382 1028.63 78.1707 1008.3C89.7967 992.037 115.568 995.545 127 999.331V1037H-16Z" fill="#2CB46C" stroke="#232323" stroke-width="2"/>
<path d="M305 1042V1010.53C321.395 989.974 330.409 1024.5 344.166 1015.25C387.43 959.138 383.331 1046.72 402.003 1015.25C416.941 990.08 438.892 996.723 448 1003.19V1042H305Z" fill="#2CB46C" stroke="#232323" stroke-width="2"/>
<path d="M304 1039C304 1033.48 308.477 1029 314 1029H439C444.523 1029 449 1033.48 449 1039V1080H304V1039Z" fill="#232323"/>
<circle cx="276.5" cy="909.5" r="8.5" fill="#E55928" stroke="#232323" stroke-width="2"/>
<path fill-rule="evenodd" clip-rule="evenodd" d="M304.92 534.96V663.779H111V534.96V533.575H111.01C111.75 480.664 154.873 438 207.96 438C261.047 438 304.17 480.664 304.911 533.575H304.92V534.96Z" fill="#232323"/>
<path fill-rule="evenodd" clip-rule="evenodd" d="M289 537.5V647.107H124V537.5V536.322H124.008C124.638 491.301 161.33 455 206.5 455C251.67 455 288.362 491.301 288.992 536.322H289V537.5Z" fill="#F3E6D6"/>
<line x1="208.5" y1="455" x2="208.5" y2="647" stroke="#232323" stroke-width="5"/>
<line x1="122" y1="549.5" x2="290" y2="549.5" stroke="#232323" stroke-width="5"/>
<path d="M402 840C402 844 399.671 847.725 395.692 850.493C391.718 853.258 386.173 855 380 855C373.827 855 368.282 853.258 364.308 850.493C360.329 847.725 358 844 358 840C358 836 360.329 832.275 364.308 829.507C368.282 826.742 373.827 825 380 825C386.173 825 391.718 826.742 395.692 829.507C399.671 832.275 402 836 402 840Z" fill="#F3E6D6" stroke="#232323" stroke-width="2"/>
<path d="M426.539 829.5H336.539C317.039 829.5 352.039 778 394.539 792C428.539 803.2 430.039 821.667 426.539 829.5Z" fill="#F48ABA" stroke="#232323" stroke-width="2"/>
<path d="M75.3827 840.099C75.3827 844.073 73.0744 847.773 69.1319 850.523C65.1929 853.269 59.6975 855 53.5799 855C47.4623 855 41.9669 853.269 38.0279 850.523C34.0854 847.773 31.7771 844.073 31.7771 840.099C31.7771 836.126 34.0854 832.425 38.0279 829.676C41.9669 826.929 47.4623 825.199 53.5799 825.199C59.6975 825.199 65.1929 826.929 69.1319 829.676C73.0744 832.425 75.3827 836.126 75.3827 840.099Z" fill="#F3E6D6" stroke="#232323" stroke-width="2"/>
<path d="M99.7198 829.665H10.4914C-8.84138 829.665 25.8586 778.484 67.9942 792.398C101.703 803.528 103.19 821.88 99.7198 829.665Z" fill="#4E8DFF" stroke="#232323" stroke-width="2"/>
<path d="M123.408 634.223C75.4084 631.823 86.4084 652.223 97.9084 662.723H202.908C204.908 621.522 171.742 626.556 154.908 634.223C140.908 644.622 128.075 638.556 123.408 634.223Z" fill="#2CB46C" stroke="#232323" stroke-width="2"/>
<path d="M269.989 644.562C245.989 642.162 243.655 658.896 245.489 667.562C265.322 670.062 308.489 673.562 322.489 667.562C336.489 661.562 333.655 653.395 330.489 650.062C320.889 631.262 304.155 638.562 296.989 644.562C286.589 650.163 274.655 646.896 269.989 644.562Z" fill="#2CB46C" stroke="#232323" stroke-width="2"/>
<path d="M131.905 707.999C111.362 707.999 93.264 680.419 97.6661 663H330C332.8 692.6 305.08 705.332 290.87 707.999C242.936 707.837 144.041 707.999 131.905 707.999Z" fill="#E7882E" stroke="#232323" stroke-width="2"/>
<path d="M115.905 137.999C95.3616 137.999 77.264 110.419 81.6661 93H314C316.8 122.6 289.08 135.332 274.87 137.999C226.936 137.837 128.041 137.999 115.905 137.999Z" fill="#4E8DFF" stroke="#232323" stroke-width="2"/>
<path d="M207.529 347.212V306H225.13V347.212C225.949 361.636 236.181 360.276 246.414 361.636C257.875 363.16 256.783 369.879 254.6 374H182.561C180.924 364.521 182.152 364.109 196.069 361.636C207.202 359.658 207.529 352.034 207.529 347.212Z" fill="#E38835" stroke="#232323" stroke-width="2"/>
<rect x="54" y="266" width="81" height="62" rx="9" fill="#F48ABA" stroke="#232323" stroke-width="2"/>
<rect x="54" y="328" width="39" height="45" rx="9" fill="#F48ABA" stroke="#232323" stroke-width="2"/>
<path d="M65.7115 342.379C61.2862 336.443 65.5229 328 72.9273 328H121.585C123.723 328 125.792 328.762 127.42 330.149L139.123 340.117C144.928 345.061 142.339 354.533 134.825 355.836L87.9557 363.965C84.6136 364.544 81.2293 363.196 79.202 360.476L65.7115 342.379Z" fill="#F48ABA" stroke="#232323" stroke-width="2"/>
<rect x="80" y="354" width="68" height="20" rx="9" fill="#F48ABA" stroke="#232323" stroke-width="2"/>
<rect x="-1" y="1" width="81" height="62" rx="9" transform="matrix(-1 0 0 1 370 265)" fill="#2CB46C" stroke="#232323" stroke-width="2"/>
<rect x="-1" y="1" width="39" height="45" rx="9" transform="matrix(-1 0 0 1 370 327)" fill="#2CB46C" stroke="#232323" stroke-width="2"/>
<path d="M359.288 342.379C363.714 336.443 359.477 328 352.073 328H303.415C301.277 328 299.208 328.762 297.58 330.149L285.877 340.117C280.072 345.061 282.661 354.533 290.175 355.836L337.044 363.965C340.386 364.544 343.771 363.196 345.798 360.476L359.288 342.379Z" fill="#2CB46C" stroke="#232323" stroke-width="2"/>
<rect x="-1" y="1" width="68" height="20" rx="9" transform="matrix(-1 0 0 1 344 353)" fill="#2CB46C" stroke="#232323" stroke-width="2"/>
<path d="M17.9999 348.65V220.65L-7 218.15V371.65C10.5 373.15 42.4999 374.15 30.4999 366.15C18.4999 358.15 17.1665 351.15 17.9999 348.65Z" fill="#E38835" stroke="#232323" stroke-width="2"/>
<path d="M32 213.649C24.4 229.649 6.5 230.983 -1.5 229.649V151.65C6.1 146.85 13 149.65 15.5 151.65C27.1 162.05 50.3333 165.983 60.5 166.649C73.5 166.149 89.5 173.149 93 201.149C95.8 223.549 53.5 218.816 32 213.649Z" fill="#2CB46C" stroke="#232323" stroke-width="2"/>
<rect x="165" y="290" width="106" height="17" rx="8.5" fill="#E38835" stroke="#232323" stroke-width="2"/>
<path d="M113 37H169V93H122C117.029 93 113 88.9706 113 84V37Z" fill="#F3E6D6" stroke="#232323" stroke-width="2"/>
<path d="M169 37H225V93H169V37Z" fill="#F3E6D6" stroke="#232323" stroke-width="2"/>
<path d="M225 37H281V84C281 88.9706 276.971 93 272 93H225V37Z" fill="#F3E6D6" stroke="#232323" stroke-width="2"/>
<path d="M113 -10C113 -14.9706 117.029 -19 122 -19H160C164.971 -19 169 -14.9706 169 -10V37H113V-10Z" fill="#F3E6D6" stroke="#232323" stroke-width="2"/>
<rect x="169" y="-19" width="56" height="56" fill="#F3E6D6" stroke="#232323" stroke-width="2"/>
<path d="M225 -10C225 -14.9706 229.029 -19 234 -19H272C276.971 -19 281 -14.9706 281 -10V37H225V-10Z" fill="#F3E6D6" stroke="#232323" stroke-width="2"/>
<path d="M128.656 56.6596C76.5001 35 69.4533 79.6114 87.8541 93H255.862C259.062 40.465 205.993 46.8835 179.058 56.6596C156.657 69.9199 140.5 63 128.656 56.6596Z" fill="#2CB46C" stroke="#232323" stroke-width="2"/>
<rect x="491" y="798" width="204" height="31" rx="9" fill="#FFCA40" stroke="#232323" stroke-width="2"/>
<path d="M510 724.682V737.462M677 722V737.462M510 737.462V798H561.514M510 737.462H561.514M677 737.462V798H618.578M677 737.462H618.578M561.514 737.462V798M561.514 737.462H618.578M561.514 798H618.578M618.578 737.462V798" stroke="#232323" stroke-width="2"/>
<circle cx="509.5" cy="718.5" r="6.5" fill="#232323"/>
<ellipse cx="677" cy="715.5" rx="6" ry="6.5" fill="#232323"/>
<circle cx="587" cy="676" r="49" fill="#F3E6D6" stroke="#232323" stroke-width="2"/>
<line x1="586.5" y1="627" x2="586.5" y2="725" stroke="#232323" stroke-width="3"/>
<line x1="539" y1="677.5" x2="637" y2="677.5" stroke="#232323" stroke-width="3"/>
<circle cx="587" cy="980" r="49" fill="#F3E6D6" stroke="#232323" stroke-width="2"/>
<line x1="586.5" y1="931" x2="586.5" y2="1029" stroke="#232323" stroke-width="3"/>
<line x1="539" y1="981.5" x2="637" y2="981.5" stroke="#232323" stroke-width="3"/>
<path d="M609 830C609 864.5 682.5 901 735.5 876" stroke="#232323" stroke-width="3"/>
<rect x="608.695" y="839.537" width="28" height="28" rx="4" transform="rotate(52.3129 608.695 839.537)" fill="#2CB46C" stroke="#232323" stroke-width="2"/>
<rect x="634.226" y="867.33" width="28" height="28" rx="4" transform="rotate(25.1412 634.226 867.33)" fill="#4E8DFF" stroke="#232323" stroke-width="2"/>
<rect x="670.92" y="882.223" width="28" height="28" rx="4" transform="rotate(7.58724 670.92 882.223)" fill="#F3E6D6" stroke="#232323" stroke-width="2"/>
<rect x="706.221" y="884.238" width="28" height="28" rx="4" transform="rotate(-12.408 706.221 884.238)" fill="#E72E2E" stroke="#232323" stroke-width="2"/>
<path d="M1687.76 -158.072C1673.95 -168.09 1679.32 -189.819 1696.2 -192.256L1984.89 -233.926C1991.08 -234.821 1997.32 -232.607 2001.56 -228.007L2169.53 -46.0139C2176.57 -38.3883 2176.18 -26.5267 2168.67 -19.3698L2054.85 89.0471C2048.21 95.3693 2038 96.0509 2030.58 90.6677L1687.76 -158.072Z" fill="#F48ABA" stroke="#232323" stroke-width="2"/>
<mask id="path-57-inside-1_791_8379" fill="white">
<path fill-rule="evenodd" clip-rule="evenodd" d="M2010.92 110.645C2010.97 108.318 2011 105.985 2011 103.645C2011 -53.7566 1883.4 -181.355 1726 -181.355C1568.6 -181.355 1441 -53.7566 1441 103.645C1441 105.985 1441.03 108.318 1441.08 110.645H1441V1092.64H2011V110.645H2010.92Z"/>
</mask>
<path fill-rule="evenodd" clip-rule="evenodd" d="M2010.92 110.645C2010.97 108.318 2011 105.985 2011 103.645C2011 -53.7566 1883.4 -181.355 1726 -181.355C1568.6 -181.355 1441 -53.7566 1441 103.645C1441 105.985 1441.03 108.318 1441.08 110.645H1441V1092.64H2011V110.645H2010.92Z" fill="#A39ACF"/>
<path d="M2010.92 110.645L2008.92 110.596L2008.87 112.645H2010.92V110.645ZM1441.08 110.645V112.645H1443.13L1443.08 110.596L1441.08 110.645ZM1441 110.645V108.645H1439V110.645H1441ZM1441 1092.64H1439V1094.64H1441V1092.64ZM2011 1092.64V1094.64H2013V1092.64H2011ZM2011 110.645H2013V108.645H2011V110.645ZM2009 103.645C2009 105.968 2008.97 108.286 2008.92 110.596L2012.92 110.693C2012.97 108.35 2013 106.001 2013 103.645H2009ZM1726 -179.355C1882.3 -179.355 2009 -52.6521 2009 103.645H2013C2013 -54.8612 1884.51 -183.355 1726 -183.355V-179.355ZM1443 103.645C1443 -52.6521 1569.7 -179.355 1726 -179.355V-183.355C1567.49 -183.355 1439 -54.8612 1439 103.645H1443ZM1443.08 110.596C1443.03 108.286 1443 105.968 1443 103.645H1439C1439 106.001 1439.03 108.35 1439.08 110.693L1443.08 110.596ZM1441 112.645H1441.08V108.645H1441V112.645ZM1443 1092.64V110.645H1439V1092.64H1443ZM2011 1090.64H1441V1094.64H2011V1090.64ZM2009 110.645V1092.64H2013V110.645H2009ZM2010.92 112.645H2011V108.645H2010.92V112.645Z" fill="#232323" mask="url(#path-57-inside-1_791_8379)"/>
<path fill-rule="evenodd" clip-rule="evenodd" d="M1536 140.062V130.645H1536.25C1537.35 110.422 1541.97 90.5051 1549.93 71.7535C1559.13 50.0969 1572.61 30.4192 1589.6 13.8439C1606.59 -2.73132 1626.77 -15.8795 1648.97 -24.85C1671.17 -33.8205 1694.97 -38.4375 1719 -38.4375C1743.03 -38.4375 1766.83 -33.8205 1789.03 -24.85C1811.23 -15.8795 1831.41 -2.73131 1848.4 13.8439C1865.39 30.4192 1878.87 50.0969 1888.07 71.7535C1896.03 90.5051 1900.65 110.422 1901.75 130.645H1902V140.063V190.645H1536V140.062Z" fill="#232323"/>
<path fill-rule="evenodd" clip-rule="evenodd" d="M1557 139.579V131.242H1557.23C1558.2 113.34 1562.28 95.7083 1569.33 79.1086C1577.47 59.9372 1589.41 42.5176 1604.45 27.8444C1619.49 13.1712 1637.35 1.53185 1657.01 -6.40922C1676.66 -14.3503 1697.73 -18.4375 1719 -18.4375C1740.27 -18.4375 1761.34 -14.3503 1780.99 -6.40921C1800.65 1.53185 1818.51 13.1713 1833.55 27.8444C1848.59 42.5176 1860.53 59.9372 1868.67 79.1086C1875.72 95.7083 1879.8 113.34 1880.77 131.242H1881V139.579V184.356H1557V139.579Z" fill="#F3E6D6"/>
<mask id="path-61-inside-2_791_8379" fill="white">
<path fill-rule="evenodd" clip-rule="evenodd" d="M1845 911V1092.65H1608V911V909.982H1608.01C1608.81 865.716 1661.55 830 1726.5 830C1791.45 830 1844.19 865.716 1844.99 909.982H1845V911Z"/>
</mask>
<path fill-rule="evenodd" clip-rule="evenodd" d="M1845 911V1092.65H1608V911V909.982H1608.01C1608.81 865.716 1661.55 830 1726.5 830C1791.45 830 1844.19 865.716 1844.99 909.982H1845V911Z" fill="#4E8DFF"/>
<path d="M1845 1092.65V1094.65H1847V1092.65H1845ZM1608 1092.65H1606V1094.65H1608V1092.65ZM1608 909.982V907.982H1606V909.982H1608ZM1608.01 909.982V911.982H1609.97L1610.01 910.018L1608.01 909.982ZM1844.99 909.982L1842.99 910.018L1843.03 911.982H1844.99V909.982ZM1845 909.982H1847V907.982H1845V909.982ZM1843 911V1092.65H1847V911H1843ZM1845 1090.65H1608V1094.65H1845V1090.65ZM1610 1092.65V911H1606V1092.65H1610ZM1610 911V909.982H1606V911H1610ZM1608 911.982H1608.01V907.982H1608V911.982ZM1610.01 910.018C1610.39 888.727 1623.27 869.268 1644.32 855.049C1665.35 840.837 1694.37 832 1726.5 832V828C1693.68 828 1663.85 837.021 1642.08 851.734C1620.31 866.44 1606.42 886.971 1606.01 909.946L1610.01 910.018ZM1726.5 832C1758.63 832 1787.65 840.837 1808.68 855.049C1829.73 869.268 1842.61 888.727 1842.99 910.018L1846.99 909.946C1846.58 886.971 1832.69 866.44 1810.92 851.734C1789.15 837.021 1759.32 828 1726.5 828V832ZM1844.99 911.982H1845V907.982H1844.99V911.982ZM1843 909.982V911H1847V909.982H1843Z" fill="#232323" mask="url(#path-61-inside-2_791_8379)"/>
<circle cx="1825.5" cy="962.062" r="8.5" fill="#E55928" stroke="#232323" stroke-width="2"/>
<path d="M1496 687.969H1604.05V796.023H1505C1500.03 796.023 1496 791.994 1496 787.023V687.969Z" fill="#F3E6D6" stroke="#232323" stroke-width="2"/>
<path d="M1602.26 687.969H1710.31V787.023C1710.31 791.994 1706.28 796.023 1701.31 796.023H1602.26V687.969Z" fill="#F3E6D6" stroke="#232323" stroke-width="2"/>
<path d="M1496 590.707C1496 585.736 1500.03 581.707 1505 581.707H1604.05V689.762H1496V590.707Z" fill="#F3E6D6" stroke="#232323" stroke-width="2"/>
<path d="M1602.26 581.707H1701.31C1706.28 581.707 1710.31 585.736 1710.31 590.707V689.762H1602.26V581.707Z" fill="#F3E6D6" stroke="#232323" stroke-width="2"/>
<path d="M1742.31 685.824H1850.37V793.879H1751.31C1746.34 793.879 1742.31 789.849 1742.31 784.879V685.824Z" fill="#F3E6D6" stroke="#232323" stroke-width="2"/>
<path d="M1848.57 685.824H1956.63V784.879C1956.63 789.849 1952.6 793.879 1947.63 793.879H1848.57V685.824Z" fill="#F3E6D6" stroke="#232323" stroke-width="2"/>
<path d="M1742.31 588.562C1742.31 583.592 1746.34 579.562 1751.31 579.562H1850.37V687.617H1742.31V588.562Z" fill="#F3E6D6" stroke="#232323" stroke-width="2"/>
<path d="M1848.57 579.562H1947.63C1952.6 579.562 1956.63 583.592 1956.63 588.562V687.617H1848.57V579.562Z" fill="#F3E6D6" stroke="#232323" stroke-width="2"/>
<path d="M1496 441.969H1604.05V550.023H1505C1500.03 550.023 1496 545.994 1496 541.023V441.969Z" fill="#F3E6D6" stroke="#232323" stroke-width="2"/>
<path d="M1602.26 441.969H1710.31V541.023C1710.31 545.994 1706.28 550.023 1701.31 550.023H1602.26V441.969Z" fill="#F3E6D6" stroke="#232323" stroke-width="2"/>
<path d="M1496 344.707C1496 339.736 1500.03 335.707 1505 335.707H1604.05V443.762H1496V344.707Z" fill="#F3E6D6" stroke="#232323" stroke-width="2"/>
<path d="M1602.26 335.707H1701.31C1706.28 335.707 1710.31 339.736 1710.31 344.707V443.762H1602.26V335.707Z" fill="#F3E6D6" stroke="#232323" stroke-width="2"/>
<path d="M1742.31 439.824H1850.37V547.879H1751.31C1746.34 547.879 1742.31 543.849 1742.31 538.879V439.824Z" fill="#F3E6D6" stroke="#232323" stroke-width="2"/>
<path d="M1848.57 439.824H1956.63V538.879C1956.63 543.849 1952.6 547.879 1947.63 547.879H1848.57V439.824Z" fill="#F3E6D6" stroke="#232323" stroke-width="2"/>
<path d="M1742.31 342.562C1742.31 337.592 1746.34 333.562 1751.31 333.562H1850.37V441.617H1742.31V342.562Z" fill="#F3E6D6" stroke="#232323" stroke-width="2"/>
<path d="M1848.57 333.562H1947.63C1952.6 333.562 1956.63 337.592 1956.63 342.562V441.617H1848.57V333.562Z" fill="#F3E6D6" stroke="#232323" stroke-width="2"/>
<path d="M1596.73 151.769C1532.03 148.495 1546.85 176.322 1562.36 190.645H1703.88C1706.58 134.444 1661.87 141.311 1639.18 151.769C1620.31 165.954 1603.02 157.679 1596.73 151.769Z" fill="#2CB46C" stroke="#232323" stroke-width="2"/>
<path d="M1866.02 150.625C1829.5 146.975 1825.95 172.425 1828.74 185.606C1858.92 189.408 1924.59 194.731 1945.89 185.606C1967.19 176.48 1962.88 164.059 1958.06 158.989C1943.45 130.397 1918 141.5 1907.09 150.625C1891.27 159.143 1873.12 154.174 1866.02 150.625Z" fill="#2CB46C" stroke="#232323" stroke-width="2"/>
<path d="M1569.91 258.645C1530.53 258.645 1495.84 213.29 1504.28 184.645H1949.62C1954.99 233.322 1901.85 254.26 1874.62 258.645C1782.73 258.379 1593.17 258.645 1569.91 258.645Z" fill="#FFCA40" stroke="#232323" stroke-width="2"/>
<line x1="1714.5" y1="-18.4375" x2="1714.5" y2="184.562" stroke="#232323" stroke-width="5"/>
<line x1="1566" y1="80.0625" x2="1874" y2="80.0866" stroke="#232323" stroke-width="5"/>
<path d="M1309.48 901.137L1278.31 894.892C1276.15 916.632 1262.35 922.447 1253.09 916.744C1245.61 912.142 1249.09 897.055 1252.86 890.762L1245.05 885.314L1253.65 880.979C1248.07 877.324 1253.14 857.626 1262.32 855.564C1275.81 852.53 1281.12 871.886 1280.43 880.872L1310.55 878.635L1316.33 823.735C1319.86 808.545 1330.8 812.076 1335.83 815.74C1347.59 807.409 1358.22 820.709 1362.07 828.401L1357.79 880.823C1363.74 881.531 1365.75 884.402 1366.09 887.122L1366.9 881.074C1370.55 876.106 1372.02 879.167 1372.3 881.319L1369.37 910.499C1366.23 915.261 1364.58 911.931 1364.14 909.67L1364.52 901.71C1363.63 907.513 1357.49 907.869 1354.23 907.224L1351.45 953.175C1345.24 973.263 1328.92 971.272 1321.53 967.766C1304.89 976.445 1302.62 963.029 1303.57 955.236L1309.48 901.137Z" fill="white" stroke="#232323" stroke-width="2"/>
<mask id="path-86-inside-3_791_8379" fill="white">
<path d="M734 830C734 818.954 742.954 810 754 810H1421C1432.05 810 1441 818.954 1441 830V1090H734V830Z"/>
</mask>
<path d="M734 830C734 818.954 742.954 810 754 810H1421C1432.05 810 1441 818.954 1441 830V1090H734V830Z" fill="#6DD2A7"/>
<path d="M732 830C732 817.849 741.85 808 754 808H1419C1431.15 808 1441 817.849 1441 830C1441 820.059 1432.05 812 1421 812H754C744.059 812 736 820.059 736 830H732ZM1441 1092H732L736 1088H1441V1092ZM732 1092V830C732 817.849 741.85 808 754 808V812C744.059 812 736 820.059 736 830V1088L732 1092ZM1441 810V1090V810Z" fill="#232323" mask="url(#path-86-inside-3_791_8379)"/>
<path d="M1059.28 586.933C1065.96 582.146 1074.88 581.928 1081.78 586.382L1426.98 809.196C1443.74 820.011 1436.08 846 1416.14 846H760.212C740.774 846 732.76 821.074 748.557 809.747L1059.28 586.933Z" fill="#6DD2A7"/>
<circle cx="1087.57" cy="820.033" r="58.5696" fill="#F3E6D6" stroke="#232323" stroke-width="2"/>
<line x1="1086.69" y1="761.655" x2="1086.69" y2="878.412" stroke="#232323" stroke-width="3"/>
<line x1="1030.38" y1="822.107" x2="1147.14" y2="822.107" stroke="#232323" stroke-width="3"/>
<rect x="702.404" y="813.535" width="457.59" height="43.9617" rx="19" transform="rotate(-38.0503 702.404 813.535)" fill="#FF9C45" stroke="#232323" stroke-width="2"/>
<path d="M1021 965.465C1021 954.971 1029.51 946.465 1040 946.465H1134C1144.49 946.465 1153 954.971 1153 965.465V1089.46H1021V965.465Z" fill="#A39ACF" stroke="#232323" stroke-width="2"/>
<circle cx="1131.86" cy="1016.46" r="6" fill="#E55928" stroke="#232323" stroke-width="2"/>
<path d="M827 1033H883V1089H836C831.029 1089 827 1084.97 827 1080V1033Z" fill="#2CB46C" stroke="#232323" stroke-width="2"/>
<path d="M883 1033H939V1080C939 1084.97 934.97 1089 930 1089H883V1033Z" fill="#FFCA40" stroke="#232323" stroke-width="2"/>
<path d="M827 986C827 981.029 831.029 977 836 977H883V1033H827V986Z" fill="#FFCA40" stroke="#232323" stroke-width="2"/>
<path d="M883 977H930C934.97 977 939 981.029 939 986V1033H883V977Z" fill="#2CB46C" stroke="#232323" stroke-width="2"/>
<path d="M1235 1032H1291V1088H1244C1239.03 1088 1235 1083.97 1235 1079V1032Z" fill="#2CB46C" stroke="#232323" stroke-width="2"/>
<path d="M1291 1032H1347V1079C1347 1083.97 1342.97 1088 1338 1088H1291V1032Z" fill="#FFCA40" stroke="#232323" stroke-width="2"/>
<path d="M1235 985C1235 980.029 1239.03 976 1244 976H1291V1032H1235V985Z" fill="#FFCA40" stroke="#232323" stroke-width="2"/>
<path d="M1291 976H1338C1342.97 976 1347 980.029 1347 985V1032H1291V976Z" fill="#2CB46C" stroke="#232323" stroke-width="2"/>
<path d="M945.361 787.465C936.528 790.965 920.561 803.865 927.361 827.465" stroke="#232323" stroke-width="2"/>
<path d="M905.861 778.465C914.194 780.298 928.961 791.765 921.361 822.965C910.361 818.298 891.861 802.865 905.861 778.465Z" fill="#2CB46C" stroke="#232323" stroke-width="2"/>
<path d="M944.361 784.965C929.561 776.565 938.194 770.131 944.361 767.965C949.961 748.365 960.027 759.798 964.361 767.965C975.861 775.465 970.361 780.965 960.361 787.965C955.561 799.565 947.694 790.798 944.361 784.965Z" fill="#F48ABA" stroke="#232323" stroke-width="2"/>
<path d="M1243.3 775.787C1252.13 779.287 1268.1 792.187 1261.3 815.787" stroke="#232323" stroke-width="2"/>
<path d="M1282.8 766.787C1274.47 768.62 1259.7 780.087 1267.3 811.287C1278.3 806.62 1296.8 791.187 1282.8 766.787Z" fill="#2CB46C" stroke="#232323" stroke-width="2"/>
<path d="M1243.3 773.287C1258.1 764.887 1249.47 758.454 1243.3 756.287C1237.7 736.687 1227.63 748.12 1223.3 756.287C1211.8 763.787 1217.3 769.287 1227.3 776.287C1232.1 787.887 1239.97 779.12 1243.3 773.287Z" fill="#4E8DFF" stroke="#232323" stroke-width="2"/>
<path d="M859.361 818.464C828.161 808.464 825.694 831.631 828.361 844.464H957.361C962.561 820.465 947.194 820.464 938.861 823.463C926.861 830.263 919.861 822.964 917.861 818.464C905.861 795.964 885.528 808.297 882.361 814.963C873.861 827.465 864.194 820.297 859.361 818.464Z" fill="#2CB46C" stroke="#232323" stroke-width="2"/>
<path d="M841.211 903C827.468 903 815.362 866.839 818.306 844H973.729C975.602 882.81 957.058 899.504 947.553 903C915.486 902.789 849.33 903 841.211 903Z" fill="#F89334" stroke="#232323" stroke-width="2"/>
<circle cx="953" cy="776" r="5" fill="#FFCA40"/>
<circle cx="1234" cy="764" r="5" fill="#FFCA40"/>
<path d="M1234.8 817.923C1203.6 807.923 1201.14 831.09 1203.8 843.923H1332.8C1338 819.924 1322.64 819.923 1314.3 822.922C1302.3 829.722 1295.3 822.423 1293.3 817.923C1281.3 795.423 1260.97 807.756 1257.8 814.422C1249.3 826.924 1239.64 819.756 1234.8 817.923Z" fill="#2CB46C" stroke="#232323" stroke-width="2"/>
<path d="M1211.21 903C1197.47 903 1185.36 866.839 1188.31 844H1343.73C1345.6 882.81 1327.06 899.504 1317.55 903C1285.49 902.789 1219.33 903 1211.21 903Z" fill="#F89334" stroke="#232323" stroke-width="2"/>
<rect x="1083.48" y="544.392" width="469.553" height="43.9617" rx="19" transform="rotate(34.792 1083.48 544.392)" fill="#FF9C45" stroke="#232323" stroke-width="2"/>
</g>
<defs>
<clipPath id="clip0_791_8379">
<rect width="1920" height="1080" fill="white"/>
</clipPath>
</defs>
</svg>
