<svg width="1920" height="1080" viewBox="0 0 1920 1080" fill="none" xmlns="http://www.w3.org/2000/svg">
<g clip-path="url(#clip0_886_16)">
<rect width="1920" height="1080" fill="#96DAFA"/>
<path d="M266 938.471C183.167 844.172 66.4218 837.27 -15 845.607V1295H1951V938.471C1903.6 871.298 1715.5 842.5 1601 938.471C1440.5 828.5 1269.58 907.911 1226 938.471C942.384 765.848 838.549 866.545 750.5 938.471C453.457 769.726 350.606 868.16 266 938.471Z" fill="#6CD2A7" stroke="#232323" stroke-width="2"/>
<path d="M167.887 94.1699C143.218 79.4338 121.318 109.231 113.451 125.972C20.5649 156.452 82.3004 199.653 124.779 217.443C144.539 256.11 179.582 251.397 194.633 244.208C224.21 283.63 267.895 255.176 286.04 236.021C324.68 267.257 350.807 231.193 359.04 209.257C431.411 159.884 389.195 137.99 359.04 133.214C354.132 60.0374 296.686 72.4958 268.577 87.8722C214.33 14.5692 178.847 61.5278 167.887 94.1699Z" fill="white" stroke="#232323" stroke-width="2"/>
<path d="M458.887 423.17C434.218 408.434 412.318 438.231 404.451 454.972C311.565 485.452 373.3 528.653 415.779 546.443C435.539 585.11 470.582 580.397 485.633 573.208C515.21 612.63 558.895 584.176 577.04 565.021C615.68 596.257 641.807 560.193 650.04 538.257C722.411 488.884 680.195 466.99 650.04 462.214C645.132 389.037 587.686 401.496 559.577 416.872C505.33 343.569 469.847 390.528 458.887 423.17Z" fill="white" stroke="#232323" stroke-width="2"/>
<path d="M1705.89 333.17C1681.22 318.434 1659.32 348.231 1651.45 364.972C1558.56 395.452 1620.3 438.653 1662.78 456.443C1682.54 495.11 1717.58 490.397 1732.63 483.208C1762.21 522.63 1805.89 494.176 1824.04 475.021C1862.68 506.257 1888.81 470.193 1897.04 448.257C1969.41 398.884 1927.19 376.99 1897.04 372.214C1892.13 299.037 1834.69 311.496 1806.58 326.872C1752.33 253.569 1716.85 300.528 1705.89 333.17Z" fill="white" stroke="#232323" stroke-width="2"/>
<path d="M1229.78 156.085C1210.65 144.639 1193.67 167.784 1187.57 180.788C1115.54 204.463 1163.42 238.019 1196.36 251.837C1211.68 281.872 1238.85 278.211 1250.52 272.627C1273.46 303.248 1307.33 281.146 1321.41 266.268C1351.37 290.53 1371.63 262.517 1378.01 245.478C1434.13 207.129 1401.4 190.122 1378.01 186.413C1374.21 129.573 1329.66 139.25 1307.86 151.194C1265.8 94.2561 1238.28 130.731 1229.78 156.085Z" fill="white" stroke="#232323" stroke-width="2"/>
<path d="M1008.35 423.75C984.047 409.151 962.475 438.671 954.726 455.256C863.23 485.453 924.041 528.252 965.884 545.877C985.349 584.183 1019.87 579.515 1034.69 572.392C1063.83 611.448 1106.86 583.258 1124.73 564.281C1162.79 595.226 1188.53 559.498 1196.64 537.766C1267.93 488.853 1226.34 467.162 1196.64 462.431C1191.8 389.935 1135.22 402.277 1107.53 417.511C1054.09 344.89 1019.14 391.411 1008.35 423.75Z" fill="white" stroke="#232323" stroke-width="2"/>
<path d="M737.528 190.841C723.495 182.411 711.037 199.458 706.562 209.035C653.723 226.473 688.842 251.188 713.006 261.365C724.247 283.486 744.181 280.79 752.743 276.677C769.569 299.23 794.419 282.952 804.741 271.993C826.722 289.863 841.585 269.231 846.268 256.682C887.437 228.436 863.422 215.911 846.268 213.178C843.476 171.314 810.797 178.442 794.807 187.238C763.948 145.302 743.763 172.167 737.528 190.841Z" fill="white" stroke="#232323" stroke-width="2"/>
<path d="M1762.53 59.8414C1748.5 51.4109 1736.04 68.458 1731.56 78.0353C1678.72 95.4728 1713.84 120.188 1738.01 130.365C1749.25 152.486 1769.18 149.79 1777.74 145.677C1794.57 168.23 1819.42 151.952 1829.74 140.993C1851.72 158.863 1866.58 138.231 1871.27 125.682C1912.44 97.4361 1888.42 84.9105 1871.27 82.1784C1868.48 40.3144 1835.8 47.4418 1819.81 56.2385C1788.95 14.3024 1768.76 41.167 1762.53 59.8414Z" fill="white" stroke="#232323" stroke-width="2"/>
<path d="M-12.4716 388.841C-26.5048 380.411 -38.963 397.458 -43.4378 407.035C-96.2774 424.473 -61.1584 449.188 -36.994 459.365C-25.7531 481.486 -5.81888 478.79 2.74309 474.677C19.5687 497.23 44.4193 480.952 54.7414 469.993C76.7221 487.863 91.5847 467.231 96.2684 454.682C137.437 426.436 113.422 413.911 96.2684 411.178C93.4761 369.314 60.7974 376.442 44.8071 385.238C13.9482 343.302 -6.23653 370.167 -12.4716 388.841Z" fill="white" stroke="#232323" stroke-width="2"/>
</g>
<defs>
<clipPath id="clip0_886_16">
<rect width="1920" height="1080" fill="white"/>
</clipPath>
</defs>
</svg>
