<svg width="732" height="528" viewBox="0 0 732 528" fill="none" xmlns="http://www.w3.org/2000/svg">
<path d="M364.34 2.6891C335.056 25.0733 335.063 91.1844 338.667 120.842C198.465 162.447 -31.9649 135.269 6.55867 208.598C32.1297 257.272 233.729 257.77 335.457 276.448C328.578 346.537 336.683 429.404 341.595 462.076C241.005 475.703 239.318 506.812 251.048 520.663L351.454 525.056L363.736 490.469L373.327 526.262L462.704 525.029C519.343 502.988 434.367 472.889 384.799 460.595C394.744 439.355 396.038 327.351 395.442 274.004C494.119 273.812 698.455 260.957 726.383 211.072C754.312 161.187 633.288 151.045 569.285 152.21C484.673 150.653 417.927 128.491 395.131 117.605C396.019 38.6214 374.973 8.08458 364.34 2.6891Z" fill="white" stroke="#232323" stroke-width="3"/>
</svg>
