<svg width="570" height="521" viewBox="0 0 570 521" fill="none" xmlns="http://www.w3.org/2000/svg">
<path d="M324.394 444.982L333.664 264.193C502.979 334.428 541.044 341.421 562.415 304.688C597.225 244.856 453.486 185.753 346.169 133.912C342.787 80.3786 342.47 -0.401977 280.461 2.04592C230.43 4.02102 235.872 99.9272 238.117 133.81C147.941 163.178 -19.1899 232.121 3.93129 288.795C31.7879 357.077 162.292 299.59 234.018 261.039L238.975 443.023C200.043 451.107 124.516 474.313 133.871 502.463C143.226 530.613 222.343 516.498 260.732 505.921C276.728 520.089 293.178 511.361 299.404 505.226C334.988 514.931 409.64 528.987 423.573 507.568C437.506 486.149 363.259 456.919 324.394 444.982Z" fill="white" stroke="#232323" stroke-width="3"/>
</svg>
