<svg width="681" height="534" viewBox="0 0 681 534" fill="none" xmlns="http://www.w3.org/2000/svg">
<path d="M332.497 530.989L318.613 506.958L212.793 505.82C203.546 453.224 224.746 439.448 238.794 436.734L318.486 428.278L291.259 265.694L1.61854 265.694L1.61846 146.211L294.294 146.212C288.896 58.9619 311.033 31.9779 322.776 29.3921L290.419 20.1156C278.929 17.2431 281.801 2.8802 290.948 1.62255L398.746 4.42948C409.631 5.75276 409.631 20.1156 398.746 24.4245L365.106 29.3921C388.774 35.8424 386.864 108.286 386.222 147.413L678.64 146.212L678.64 266.583L383.689 266.582L357.39 428.867L418.863 438.941C473.923 449.635 458.452 493.617 453.397 515.117L346.207 508.603L332.497 530.989Z" fill="white" stroke="#232323" stroke-width="3"/>
</svg>
