<svg width="173" height="147" viewBox="0 0 173 147" fill="none" xmlns="http://www.w3.org/2000/svg">
<path d="M128.499 134.563L122.139 131.029L98.1836 145.031C89.017 134.446 91.9292 128.491 94.7233 125.988L111.509 113.349L83.4784 80.4479L18.3308 119.474L2.23176 92.599L68.0621 53.1643C55.0921 34.2668 56.4354 25.2147 58.7283 23.0509L50.2004 25.3242C47.2289 26.2262 45.9398 22.6086 47.8276 21.0934L72.4524 7.2001C75.0789 6.03115 77.0142 9.26171 75.1465 11.6975L68.2493 17.3475C74.4419 15.6093 83.7734 32.161 88.9008 41.0482L154.511 1.37794L170.73 28.4524L104.388 68.1938L120.339 108.239L135.523 102.222C149.348 97.209 151.794 109.186 153.554 114.703L128.567 127.681L128.499 134.563Z" fill="white" stroke="#232323" stroke-width="2"/>
</svg>
