<svg width="160" height="160" viewBox="0 0 160 160" fill="none" xmlns="http://www.w3.org/2000/svg">
<path d="M109.245 119.245L91.3129 68.7951C145.458 68.7951 156.635 66.3914 158.309 53.9321C161.035 33.6379 115.127 33.7808 79.9794 31.7798C72.9977 17.5358 63.7684 -4.50081 47.127 3.19648C33.6998 9.40705 46.0396 34.9955 50.4868 43.9993C29.2069 62.2449 -8.59021 100.026 4.13262 112.891C19.4612 128.391 48.5616 97.8914 63.7684 79.228L85.7179 128.391C76.0104 135.013 58.03 149.915 63.7684 156.546C69.5069 163.177 89.4957 150.353 98.7728 143.112C104.741 145.17 108.241 140.92 109.245 138.538C120.053 137.157 142.012 132.536 143.389 125.104C144.766 117.673 121.2 118.101 109.245 119.245Z" fill="white" stroke="#232323" stroke-width="2"/>
</svg>
