<svg width="178" height="147" viewBox="0 0 178 147" fill="none" xmlns="http://www.w3.org/2000/svg">
<path d="M163.384 74.7814L115.806 49.6265C126.981 36.6896 122.86 12.2629 119.402 1.66665C94.2847 4.76263 83.0263 22.2144 80.5367 30.5533L40.8418 9.40638C28.4542 3.99876 14.0927 -5.07841 5.01962 9.40638C-4.0535 23.8912 6.31052 35.3445 12.6267 39.2605L64.6311 67.0415L49.1404 108.091C32.1315 99.6875 23.8887 111.039 21.8934 117.766L40.4269 129.099L43.608 140.295L54.3962 137.945L71.8232 145.409C83.8839 137.447 74.3589 122.465 68.0889 115.969L92.8463 83.7653L129.775 103.253C143 110.5 154.145 119.093 168.64 108.367C183.135 97.6419 175.491 80.4998 163.384 74.7814Z" fill="white" stroke="#232323" stroke-width="2"/>
</svg>
