<svg width="192" height="147" viewBox="0 0 192 147" fill="none" xmlns="http://www.w3.org/2000/svg">
<path d="M108.946 2C99.7483 5.78878 95.1323 23.019 94 31C54.5445 32.0524 -3.62794 8.87791 1.29261 30.6789C4.55876 45.15 57.0789 59.3579 82.2938 71.3293C75.6047 89.1155 71.9292 111.278 70.9275 120.136C43.7529 116.663 41.14 124.653 43.2304 129.082L69.0985 137.238L74.7163 129.082V139.08L98.1021 145C114.407 143.211 94.3569 129.433 82.2938 122.767C86.37 117.926 94.5311 88.8261 98.1021 74.8813C123.84 81.7222 178.006 92.6412 188.771 81.5906C199.537 70.54 168.695 59.4456 151.929 55.2797C129.98 48.965 114.128 38.5284 108.946 34.0994C114.694 13.5768 111.341 4.14873 108.946 2Z" fill="white" stroke="#232323" stroke-width="2"/>
</svg>
