<svg width="627" height="510" viewBox="0 0 627 510" fill="none" xmlns="http://www.w3.org/2000/svg">
<path d="M549.734 131.084L376.149 137.554C386.508 83.3579 347.428 26.0382 320.663 2.00001C255.453 51.1876 247.002 110.228 253.5 137.554L101.704 146.108C58.3516 150.984 3.56001 148.788 1.57454 203.918C-0.410943 259.047 47.0416 274.336 71.0161 275.089L261.211 268.817L284.157 408.556C223.053 412.516 218.332 457.549 223.61 479.571L293.704 481.341L320.663 507.5L347.026 483.522L407.782 476.26C428.646 434.544 377.844 408.037 349.835 399.998L367.066 270.03L501.738 264.907C550.398 263.819 595.418 269.852 618.625 216.481C641.833 163.11 592.801 127.531 549.734 131.084Z" fill="white" stroke="#232323" stroke-width="3"/>
</svg>
