<svg width="166" height="205" viewBox="0 0 166 205" fill="none" xmlns="http://www.w3.org/2000/svg">
<g clip-path="url(#clip0_810_5)">
<path d="M81.8616 115.586L45.0113 111.43C44.6665 136.91 29.1965 145.043 17.8689 139.336C8.72732 134.73 11.4535 119.378 15.0238 109.161L5.40369 103.607L14.9631 97.7135C9.70388 82.6346 12.0536 70.6227 22.5096 67.3134C37.8904 62.4456 45.9872 84.4126 46.0749 94.9247L80.8593 89.3295L82.114 24.9493C83.1902 7.39864 97.7808 9.95864 103.991 13.7168C116.824 2.86522 135.74 13.7168 135.74 25.8215L135.977 87.1725C146.651 87.5249 145.785 94.2991 146.044 98.1726L146.593 86.5576C148.511 81.4682 152.357 83.8328 152.896 86.3056L152.388 120.51C150.261 124.627 146.962 122.651 146.23 120.067L145.876 110.778C145.419 117.611 138.327 118.635 134.476 118.209L135.807 171.891C130.59 195.855 111.424 195.165 102.493 191.824C84.0152 203.566 80.043 188.2 80.3666 179.049L81.8616 115.586Z" fill="white"/>
<path d="M45.0113 111.43L81.8616 115.586L80.3666 179.049C80.043 188.2 84.0152 203.566 102.493 191.824C111.424 195.165 130.59 195.855 135.807 171.891L134.476 118.209C138.736 118.68 146.962 117.378 145.785 108.398L146.23 120.067C146.962 122.651 150.261 124.627 152.388 120.51L152.896 86.3056C152.357 83.8328 148.511 81.4682 146.593 86.5576L146.044 98.1726C145.785 94.2991 146.651 87.5249 135.977 87.1725L135.74 25.8215C135.74 13.7168 116.824 2.86522 103.991 13.7168C97.7808 9.95864 83.1902 7.39864 82.114 24.9493L80.8593 89.3295L46.0749 94.9247C45.9872 84.4126 37.8904 62.4456 22.5096 67.3134C12.0536 70.6227 9.70388 82.6346 14.9631 97.7135L5.40369 103.607L15.0238 109.161C11.4535 119.378 8.72733 134.73 17.8689 139.336C29.1965 145.043 44.6665 136.91 45.0113 111.43Z" stroke="#232323" stroke-width="2"/>
</g>
<defs>
<clipPath id="clip0_810_5">
<rect width="166" height="205" fill="white"/>
</clipPath>
</defs>
</svg>
