<svg width="130" height="160" viewBox="0 0 130 160" fill="none" xmlns="http://www.w3.org/2000/svg">
<g clip-path="url(#clip0_790_8374)">
<path d="M66.5628 90.8308L35.8518 87.3668C35.5644 108.602 22.6718 115.38 13.2313 110.624C5.61275 106.785 7.88478 93.9907 10.8602 85.4763L2.84283 80.8475L10.8096 75.9357C6.42661 63.369 8.38489 53.3582 17.0989 50.6003C29.9172 46.5435 36.6651 64.8507 36.7382 73.6115L65.7274 68.9485L66.7731 15.2941C67.6701 0.667396 79.8298 2.8009 85.0056 5.93294C95.7002 -3.11075 111.465 5.93294 111.465 16.021L111.663 67.1509C120.558 67.4445 119.836 73.0902 120.053 76.3183L120.51 66.6384C122.109 62.3969 125.313 64.3676 125.763 66.4284L125.34 94.9344C123.567 98.3653 120.817 96.7188 120.208 94.5654L119.912 86.8238C119.531 92.5187 113.621 93.3718 110.412 93.017L111.52 137.755C107.173 157.727 91.2001 157.152 83.7568 154.367C68.3576 164.153 65.0472 151.347 65.3168 143.721L66.5628 90.8308Z" fill="white"/>
<path d="M35.8518 87.3668L66.5628 90.8308L65.3168 143.721C65.0472 151.347 68.3576 164.153 83.7568 154.367C91.2001 157.152 107.173 157.727 111.52 137.755L110.412 93.017C113.962 93.4096 120.818 92.3237 119.836 84.8398L120.208 94.5654C120.817 96.7188 123.567 98.3653 125.34 94.9344L125.763 66.4284C125.313 64.3676 122.109 62.3969 120.51 66.6384L120.053 76.3183C119.836 73.0902 120.558 67.4445 111.663 67.1509L111.465 16.021C111.465 5.93294 95.7002 -3.11075 85.0056 5.93294C79.8298 2.8009 67.6701 0.667397 66.7731 15.2941L65.7274 68.9485L36.7382 73.6115C36.6651 64.8507 29.9172 46.5435 17.0989 50.6003C8.38489 53.3582 6.42661 63.369 10.8096 75.9357L2.84284 80.8475L10.8602 85.4763C7.88478 93.9907 5.61275 106.785 13.2313 110.624C22.6718 115.38 35.5644 108.602 35.8518 87.3668Z" stroke="#232323" stroke-width="2"/>
</g>
<defs>
<clipPath id="clip0_790_8374">
<rect width="130" height="160" fill="white"/>
</clipPath>
</defs>
</svg>
