<svg width="166" height="205" viewBox="0 0 166 205" fill="none" xmlns="http://www.w3.org/2000/svg">
<g clip-path="url(#clip0_790_8375)">
<path d="M5.55953 101.52L18.0809 99.3091L17.4937 71.3207C31.1643 66.3701 36.2508 72.8906 37.0853 76.7696L41.3555 98.4236L84.8121 90.3182L93.8044 6.79382L117.226 7.52854L117.956 90.463C142.115 88.4577 149.726 94.4378 150.511 97.6785L151.69 87.3668C154.755 83.3597 157.19 86.5807 158.024 88.692L157.875 118.596C153.75 122.721 151.835 119.922 151.393 118.007L151.099 108.874C149.449 115.473 127.333 117.223 116.481 117.273L115.886 197.114L91.7274 197.116L85.1048 115.95L39.5873 107.262L37.5234 126.707C35.1656 137.785 22.5953 138.002 16.6049 136.725L17.7857 106.969L5.55953 101.52Z" fill="white" stroke="#232323" stroke-width="2"/>
</g>
<defs>
<clipPath id="clip0_790_8375">
<rect width="166" height="205" fill="white"/>
</clipPath>
</defs>
</svg>
