<svg width="166" height="205" viewBox="0 0 166 205" fill="none" xmlns="http://www.w3.org/2000/svg">
<g clip-path="url(#clip0_810_7)">
<path d="M3.32922 103.944L16.5874 97.4808L14.0394 72.9072C26.7009 68.1013 35.5752 85.2553 38.4296 94.4331L104.004 87.8838L105.67 23.9019C109.624 8.13472 123.89 15.0882 126.43 22.2828L134.893 90.5723L148.368 93.9889C155.72 75.1898 157.74 89.7979 157.83 99.4518L164.197 104.925L156.656 112.635L156.527 118.208C156.656 127.348 146.096 126.911 148.143 115.34L134.141 118.632L128.045 184.933C124.22 199.586 105.993 195.48 106.132 184.09L103.486 120.442L37.5074 115.206C32.1611 130.264 26.0939 134.975 16.6789 132.106L16.2671 111.414L3.32922 103.944Z" fill="white" stroke="#232323" stroke-width="2"/>
</g>
<defs>
<clipPath id="clip0_810_7">
<rect width="166" height="205" fill="white"/>
</clipPath>
</defs>
</svg>
