<svg width="130" height="160" viewBox="0 0 130 160" fill="none" xmlns="http://www.w3.org/2000/svg">
<g clip-path="url(#clip0_790_8375)">
<path d="M3.64546 78.7132L13.6162 76.9529L13.1487 54.6658C24.0346 50.7236 28.085 55.9158 28.7494 59.0047L32.1498 76.2478L66.7543 69.7935L73.9149 3.28296L92.5658 3.86802L93.1471 69.9088C112.385 68.312 118.445 73.0739 119.07 75.6545L120.009 67.4432C122.45 64.2524 124.389 66.8173 125.053 68.4986L124.934 92.3108C121.65 95.5955 120.125 93.3669 119.773 91.842L119.539 84.5693C118.225 89.8245 100.614 91.2179 91.9726 91.2576L91.4984 154.835L72.261 154.837L66.9874 90.2039L30.7418 83.2859L29.0983 98.7698C27.2208 107.591 17.2111 107.764 12.4409 106.748L13.3812 83.0526L3.64546 78.7132Z" fill="white" stroke="#232323" stroke-width="2"/>
</g>
<defs>
<clipPath id="clip0_790_8375">
<rect width="130" height="160" fill="white"/>
</clipPath>
</defs>
</svg>
