<svg width="130" height="160" viewBox="0 0 130 160" fill="none" xmlns="http://www.w3.org/2000/svg">
<g clip-path="url(#clip0_790_8377)">
<path d="M2.64524 80.2888L12.962 75.2592L10.9793 56.1375C20.8318 52.3978 27.7372 65.7461 29.9584 72.8877L80.9843 67.7914L82.2812 18.0043C85.3578 5.73515 96.4586 11.146 98.4354 16.7444L105.02 69.8834L115.506 72.542C121.227 57.9136 122.799 69.2808 122.869 76.793L127.823 81.0515L121.955 87.0515L121.855 91.3883C121.955 98.5 113.738 98.1604 115.331 89.1559L104.435 91.7176L99.6921 143.31C96.7156 154.712 82.5324 151.517 82.6407 142.654L80.5819 93.1265L29.2408 89.0522C25.0806 100.769 20.3594 104.435 13.0332 102.203L12.7128 86.1013L2.64524 80.2888Z" fill="white" stroke="#232323" stroke-width="2"/>
</g>
<defs>
<clipPath id="clip0_790_8377">
<rect width="130" height="160" fill="white"/>
</clipPath>
</defs>
</svg>
